<?xml version="1.0" encoding="utf-8"?>
<!-- Generator: Adobe Illustrator 22.0.0, SVG Export Plug-In . SVG Version: 6.00 Build 0)  -->
<svg version="1.1" id="图层_1" xmlns="http://www.w3.org/2000/svg" xmlns:xlink="http://www.w3.org/1999/xlink" x="0px" y="0px"
	 viewBox="0 0 665.4 101.7" style="enable-background:new 0 0 665.4 101.7;" xml:space="preserve">
<style type="text/css">
	.st0{fill:#20509A;}
	.st1{fill:#20509A;stroke:#20509A;stroke-width:0.5;stroke-miterlimit:10;}
</style>
<g>
	<g>
		<path class="st0" d="M18.2,95.8v0.4h-6.7v-0.4H12c0.6,0,1.1-0.2,1.4-0.6c0.2-0.2,0.3-0.8,0.3-1.8V83.3c0-0.8-0.1-1.3-0.2-1.6
			c-0.1-0.2-0.2-0.4-0.5-0.5c-0.3-0.2-0.7-0.3-1.1-0.3h-0.6v-0.4h6.7v0.4h-0.6c-0.6,0-1.1,0.2-1.4,0.6c-0.2,0.2-0.3,0.8-0.3,1.8
			v10.2c0,0.8,0,1.3,0.2,1.6c0.1,0.2,0.2,0.4,0.5,0.5c0.3,0.2,0.7,0.3,1.1,0.3H18.2z"/>
		<path class="st0" d="M23.1,87.5c1.2-1.5,2.4-2.3,3.6-2.3c0.6,0,1.1,0.1,1.5,0.4c0.4,0.3,0.8,0.8,1,1.4c0.2,0.5,0.3,1.2,0.3,2.1
			v4.5c0,0.7,0.1,1.1,0.2,1.4c0.1,0.2,0.2,0.3,0.4,0.5c0.2,0.1,0.5,0.2,1,0.2v0.4h-5.3v-0.4H26c0.5,0,0.8-0.1,1-0.2
			c0.2-0.2,0.3-0.4,0.4-0.7c0-0.1,0-0.5,0-1.1v-4.4c0-1-0.1-1.7-0.4-2.1c-0.3-0.4-0.7-0.7-1.3-0.7c-0.9,0-1.8,0.5-2.7,1.5v5.6
			c0,0.7,0,1.2,0.1,1.3c0.1,0.2,0.3,0.4,0.4,0.5c0.2,0.1,0.6,0.2,1.2,0.2v0.4h-5.3v-0.4h0.2c0.5,0,0.9-0.1,1.1-0.4
			c0.2-0.3,0.3-0.8,0.3-1.6v-3.9c0-1.3,0-2.1-0.1-2.3c-0.1-0.3-0.1-0.5-0.3-0.6c-0.1-0.1-0.3-0.2-0.5-0.2c-0.2,0-0.5,0.1-0.8,0.2
			l-0.2-0.4l3.2-1.3h0.5V87.5z"/>
		<path class="st0" d="M39.2,85.3v3.6h-0.4c-0.3-1.1-0.7-1.9-1.1-2.3c-0.5-0.4-1-0.6-1.8-0.6c-0.5,0-1,0.1-1.3,0.4
			c-0.3,0.3-0.5,0.6-0.5,1c0,0.4,0.1,0.8,0.4,1.1c0.2,0.3,0.7,0.7,1.5,1l1.7,0.8c1.6,0.8,2.4,1.8,2.4,3c0,1-0.4,1.7-1.1,2.3
			c-0.7,0.6-1.5,0.9-2.5,0.9c-0.6,0-1.4-0.1-2.2-0.3c-0.3-0.1-0.5-0.1-0.6-0.1c-0.2,0-0.3,0.1-0.4,0.3h-0.4v-3.8h0.4
			c0.2,1.1,0.6,1.9,1.2,2.4c0.6,0.5,1.3,0.8,2.1,0.8c0.5,0,1-0.2,1.3-0.5c0.3-0.3,0.5-0.7,0.5-1.1c0-0.5-0.2-1-0.6-1.3
			c-0.4-0.4-1.1-0.8-2.2-1.4c-1.1-0.6-1.9-1.1-2.2-1.5c-0.3-0.4-0.5-1-0.5-1.7c0-0.9,0.3-1.6,0.9-2.2c0.6-0.6,1.4-0.9,2.3-0.9
			c0.4,0,0.9,0.1,1.5,0.3c0.4,0.1,0.7,0.2,0.8,0.2c0.1,0,0.2,0,0.3-0.1c0.1-0.1,0.2-0.2,0.2-0.4H39.2z"/>
		<path class="st0" d="M45.1,82.1v3.5h2.5v0.8h-2.5v6.9c0,0.7,0.1,1.2,0.3,1.4c0.2,0.2,0.5,0.4,0.8,0.4c0.3,0,0.5-0.1,0.7-0.2
			c0.2-0.2,0.4-0.4,0.6-0.7h0.5c-0.3,0.8-0.7,1.3-1.1,1.7c-0.5,0.4-1,0.6-1.5,0.6c-0.4,0-0.7-0.1-1-0.3c-0.3-0.2-0.6-0.5-0.8-0.8
			c-0.2-0.4-0.2-0.9-0.2-1.7v-7.1h-1.7V86c0.4-0.2,0.9-0.5,1.3-0.9c0.4-0.4,0.8-0.9,1.2-1.4c0.2-0.3,0.4-0.8,0.7-1.6H45.1z"/>
		<path class="st0" d="M52.8,85.3v8.5c0,0.7,0,1.1,0.1,1.3c0.1,0.2,0.2,0.4,0.4,0.5c0.2,0.1,0.5,0.2,1,0.2v0.4h-5.2v-0.4
			c0.5,0,0.9,0,1-0.2c0.2-0.1,0.3-0.3,0.4-0.5c0.1-0.2,0.2-0.7,0.2-1.3v-4.1c0-1.2,0-1.9-0.1-2.2c-0.1-0.2-0.1-0.4-0.3-0.5
			c-0.1-0.1-0.3-0.1-0.5-0.1c-0.2,0-0.5,0.1-0.8,0.2l-0.2-0.4l3.2-1.3H52.8z M51.8,79.7c0.3,0,0.6,0.1,0.8,0.3
			c0.2,0.2,0.3,0.5,0.3,0.8c0,0.3-0.1,0.6-0.3,0.8c-0.2,0.2-0.5,0.3-0.8,0.3c-0.3,0-0.6-0.1-0.8-0.3c-0.2-0.2-0.3-0.5-0.3-0.8
			c0-0.3,0.1-0.6,0.3-0.8C51.2,79.8,51.5,79.7,51.8,79.7z"/>
		<path class="st0" d="M59.3,82.1v3.5h2.5v0.8h-2.5v6.9c0,0.7,0.1,1.2,0.3,1.4c0.2,0.2,0.5,0.4,0.8,0.4c0.3,0,0.5-0.1,0.7-0.2
			c0.2-0.2,0.4-0.4,0.6-0.7h0.5c-0.3,0.8-0.7,1.3-1.1,1.7c-0.5,0.4-1,0.6-1.5,0.6c-0.4,0-0.7-0.1-1-0.3c-0.3-0.2-0.6-0.5-0.8-0.8
			c-0.2-0.4-0.2-0.9-0.2-1.7v-7.1h-1.7V86c0.4-0.2,0.9-0.5,1.3-0.9c0.4-0.4,0.8-0.9,1.2-1.4c0.2-0.3,0.4-0.8,0.7-1.6H59.3z"/>
		<path class="st0" d="M72.6,85.6V92c0,1.2,0,2,0.1,2.3c0.1,0.3,0.2,0.5,0.3,0.6c0.1,0.1,0.3,0.2,0.4,0.2c0.2,0,0.5-0.1,0.8-0.2
			l0.2,0.4l-3.2,1.3h-0.5v-2.3c-0.9,1-1.6,1.6-2.1,1.9c-0.5,0.3-1,0.4-1.5,0.4c-0.6,0-1.1-0.2-1.5-0.5c-0.4-0.3-0.7-0.8-0.9-1.3
			c-0.2-0.5-0.3-1.3-0.3-2.3v-4.7c0-0.5-0.1-0.9-0.2-1c-0.1-0.2-0.3-0.3-0.5-0.4c-0.2-0.1-0.6-0.2-1.2-0.1v-0.4h3.7v7.1
			c0,1,0.2,1.6,0.5,1.9c0.3,0.3,0.8,0.5,1.2,0.5c0.3,0,0.7-0.1,1.1-0.3c0.4-0.2,0.9-0.6,1.5-1.2v-6c0-0.6-0.1-1-0.3-1.2
			C70.1,86.2,69.7,86,69,86v-0.4H72.6z"/>
		<path class="st0" d="M78.7,82.1v3.5h2.5v0.8h-2.5v6.9c0,0.7,0.1,1.2,0.3,1.4c0.2,0.2,0.5,0.4,0.8,0.4c0.3,0,0.5-0.1,0.7-0.2
			c0.2-0.2,0.4-0.4,0.6-0.7h0.5c-0.3,0.8-0.7,1.3-1.1,1.7c-0.5,0.4-1,0.6-1.5,0.6c-0.4,0-0.7-0.1-1-0.3c-0.3-0.2-0.6-0.5-0.8-0.8
			c-0.2-0.4-0.2-0.9-0.2-1.7v-7.1h-1.7V86c0.4-0.2,0.9-0.5,1.3-0.9c0.4-0.4,0.8-0.9,1.2-1.4c0.2-0.3,0.4-0.8,0.7-1.6H78.7z"/>
		<path class="st0" d="M84.5,89.6c0,1.6,0.4,2.8,1.1,3.7c0.8,0.9,1.7,1.3,2.7,1.3c0.7,0,1.3-0.2,1.8-0.6c0.5-0.4,0.9-1,1.3-2
			l0.4,0.2c-0.2,1.1-0.6,2-1.4,2.9c-0.8,0.9-1.8,1.3-2.9,1.3c-1.3,0-2.4-0.5-3.3-1.5c-0.9-1-1.4-2.3-1.4-4c0-1.8,0.5-3.2,1.4-4.3
			c0.9-1,2.1-1.5,3.5-1.5c1.2,0,2.2,0.4,2.9,1.2c0.8,0.8,1.1,1.8,1.1,3.1H84.5z M84.5,88.9h4.9c0-0.7-0.1-1.2-0.2-1.4
			c-0.2-0.4-0.5-0.8-0.9-1c-0.4-0.2-0.8-0.4-1.2-0.4c-0.6,0-1.2,0.2-1.7,0.7C84.9,87.3,84.6,88,84.5,88.9z"/>
		<path class="st0" d="M105.3,85.3c1.6,0,2.9,0.6,3.9,1.8c0.8,1,1.2,2.2,1.2,3.6c0,1-0.2,1.9-0.7,2.9c-0.5,1-1.1,1.7-1.9,2.2
			c-0.8,0.5-1.7,0.7-2.7,0.7c-1.6,0-2.9-0.6-3.8-1.9c-0.8-1.1-1.2-2.3-1.2-3.6c0-1,0.2-1.9,0.7-2.9c0.5-1,1.1-1.7,1.9-2.1
			C103.6,85.5,104.4,85.3,105.3,85.3z M105,86c-0.4,0-0.8,0.1-1.2,0.4c-0.4,0.2-0.7,0.7-1,1.3c-0.3,0.6-0.4,1.4-0.4,2.4
			c0,1.5,0.3,2.9,0.9,4c0.6,1.1,1.4,1.7,2.4,1.7c0.8,0,1.4-0.3,1.9-0.9c0.5-0.6,0.7-1.7,0.7-3.2c0-1.9-0.4-3.4-1.2-4.5
			C106.5,86.4,105.8,86,105,86z"/>
		<path class="st0" d="M116.6,86.4v7c0,1,0.1,1.6,0.3,1.9c0.3,0.3,0.7,0.5,1.1,0.5h1v0.4h-6.3v-0.4h0.5c0.3,0,0.6-0.1,0.8-0.2
			c0.3-0.2,0.4-0.4,0.5-0.6c0.1-0.3,0.1-0.8,0.1-1.5v-7h-2.1v-0.8h2.1v-0.7c0-1.1,0.2-2,0.5-2.7c0.3-0.7,0.9-1.3,1.6-1.8
			c0.7-0.5,1.5-0.7,2.4-0.7c0.8,0,1.6,0.3,2.2,0.8c0.4,0.3,0.7,0.7,0.7,1.2c0,0.2-0.1,0.5-0.3,0.7c-0.2,0.2-0.4,0.3-0.6,0.3
			c-0.2,0-0.4-0.1-0.6-0.2c-0.2-0.1-0.4-0.4-0.7-0.8c-0.3-0.4-0.5-0.7-0.8-0.9c-0.2-0.1-0.5-0.2-0.8-0.2c-0.4,0-0.7,0.1-0.9,0.3
			c-0.2,0.2-0.4,0.5-0.5,0.9c-0.1,0.4-0.2,1.4-0.2,3.1v0.8h2.7v0.8H116.6z"/>
		<path class="st0" d="M136.1,91H130l-1.1,2.5c-0.3,0.6-0.4,1.1-0.4,1.4c0,0.2,0.1,0.5,0.3,0.6c0.2,0.2,0.7,0.3,1.5,0.4v0.4h-5v-0.4
			c0.7-0.1,1.1-0.3,1.3-0.5c0.4-0.4,0.8-1.1,1.3-2.3l5.5-12.9h0.4l5.5,13.1c0.4,1.1,0.8,1.7,1.2,2c0.4,0.3,0.9,0.5,1.5,0.5v0.4h-6.2
			v-0.4c0.6,0,1-0.1,1.3-0.3c0.2-0.2,0.3-0.4,0.3-0.6c0-0.3-0.2-0.9-0.5-1.6L136.1,91z M135.8,90.1l-2.7-6.4l-2.7,6.4H135.8z"/>
		<path class="st0" d="M151.1,95c-0.5,0.5-1,0.9-1.5,1.2c-0.5,0.2-1,0.4-1.6,0.4c-1.2,0-2.2-0.5-3-1.5c-0.9-1-1.3-2.2-1.3-3.7
			c0-1.5,0.5-2.9,1.4-4.2c1-1.3,2.2-1.9,3.7-1.9c0.9,0,1.7,0.3,2.3,0.9v-2c0-1.2,0-2-0.1-2.2c-0.1-0.3-0.1-0.5-0.3-0.6
			c-0.1-0.1-0.3-0.2-0.5-0.2c-0.2,0-0.5,0.1-0.8,0.2l-0.2-0.4l3.2-1.3h0.5V92c0,1.2,0,2,0.1,2.3c0.1,0.3,0.2,0.5,0.3,0.6
			c0.1,0.1,0.3,0.2,0.4,0.2c0.2,0,0.5-0.1,0.8-0.2l0.1,0.4l-3.2,1.3h-0.5V95z M151.1,94.2v-5.5c0-0.5-0.2-1-0.4-1.4
			c-0.2-0.4-0.5-0.8-0.9-1c-0.4-0.2-0.8-0.3-1.1-0.3c-0.7,0-1.3,0.3-1.8,0.9c-0.7,0.8-1.1,2-1.1,3.5c0,1.6,0.3,2.8,1,3.6
			c0.7,0.8,1.4,1.2,2.3,1.2C149.8,95.3,150.5,94.9,151.1,94.2z"/>
		<path class="st0" d="M155.4,85.6h5V86h-0.3c-0.3,0-0.5,0.1-0.7,0.2c-0.2,0.1-0.2,0.3-0.2,0.6c0,0.3,0.1,0.6,0.2,1l2.5,5.9l2.5-6.1
			c0.2-0.4,0.3-0.8,0.3-1c0-0.1,0-0.2-0.1-0.3c-0.1-0.1-0.2-0.2-0.3-0.2c-0.1,0-0.4-0.1-0.8-0.1v-0.4h3.5V86c-0.4,0-0.7,0.1-0.8,0.2
			c-0.3,0.2-0.5,0.6-0.7,1.2l-3.8,9.1h-0.5l-3.8-9c-0.2-0.4-0.3-0.7-0.5-0.9c-0.2-0.2-0.4-0.3-0.6-0.5c-0.1-0.1-0.4-0.1-0.8-0.2
			V85.6z"/>
		<path class="st0" d="M174.3,94.7c-1.1,0.8-1.8,1.3-2.1,1.5c-0.4,0.2-0.9,0.3-1.3,0.3c-0.7,0-1.3-0.3-1.8-0.8
			c-0.5-0.5-0.7-1.2-0.7-2c0-0.5,0.1-1,0.3-1.3c0.3-0.5,0.9-1,1.7-1.5c0.8-0.5,2.1-1,3.9-1.7v-0.4c0-1.1-0.2-1.8-0.5-2.2
			c-0.3-0.4-0.8-0.6-1.5-0.6c-0.5,0-0.9,0.1-1.2,0.4c-0.3,0.3-0.4,0.6-0.4,0.9l0,0.7c0,0.4-0.1,0.6-0.3,0.8
			c-0.2,0.2-0.4,0.3-0.7,0.3c-0.3,0-0.5-0.1-0.7-0.3c-0.2-0.2-0.3-0.5-0.3-0.8c0-0.7,0.3-1.3,1-1.8c0.7-0.6,1.6-0.8,2.9-0.8
			c0.9,0,1.7,0.2,2.3,0.5c0.5,0.2,0.8,0.6,1,1.1c0.1,0.3,0.2,1,0.2,2v3.6c0,1,0,1.6,0.1,1.9c0,0.2,0.1,0.4,0.2,0.5
			c0.1,0.1,0.2,0.1,0.3,0.1c0.1,0,0.2,0,0.3-0.1c0.2-0.1,0.5-0.4,0.9-0.8v0.6c-0.9,1.2-1.7,1.7-2.5,1.7c-0.4,0-0.7-0.1-0.9-0.4
			C174.5,95.8,174.3,95.3,174.3,94.7z M174.3,93.9v-4c-1.2,0.5-1.9,0.8-2.3,1c-0.6,0.3-1,0.7-1.3,1.1c-0.3,0.4-0.4,0.8-0.4,1.2
			c0,0.6,0.2,1,0.5,1.4c0.3,0.4,0.7,0.6,1.1,0.6C172.6,95.1,173.4,94.7,174.3,93.9z"/>
		<path class="st0" d="M182.4,87.5c1.2-1.5,2.4-2.3,3.6-2.3c0.6,0,1.1,0.1,1.5,0.4c0.4,0.3,0.8,0.8,1,1.4c0.2,0.5,0.3,1.2,0.3,2.1
			v4.5c0,0.7,0.1,1.1,0.2,1.4c0.1,0.2,0.2,0.3,0.4,0.5c0.2,0.1,0.5,0.2,1,0.2v0.4h-5.3v-0.4h0.2c0.5,0,0.8-0.1,1-0.2
			c0.2-0.2,0.3-0.4,0.4-0.7c0-0.1,0-0.5,0-1.1v-4.4c0-1-0.1-1.7-0.4-2.1c-0.3-0.4-0.7-0.7-1.3-0.7c-0.9,0-1.8,0.5-2.7,1.5v5.6
			c0,0.7,0,1.2,0.1,1.3c0.1,0.2,0.3,0.4,0.4,0.5c0.2,0.1,0.6,0.2,1.2,0.2v0.4h-5.3v-0.4h0.2c0.5,0,0.9-0.1,1.1-0.4
			c0.2-0.3,0.3-0.8,0.3-1.6v-3.9c0-1.3,0-2.1-0.1-2.3c-0.1-0.3-0.1-0.5-0.3-0.6c-0.1-0.1-0.3-0.2-0.5-0.2c-0.2,0-0.5,0.1-0.8,0.2
			l-0.2-0.4l3.2-1.3h0.5V87.5z"/>
		<path class="st0" d="M200.7,92.2c-0.3,1.4-0.8,2.5-1.7,3.2c-0.8,0.8-1.8,1.1-2.8,1.1c-1.2,0-2.3-0.5-3.2-1.5
			c-0.9-1-1.3-2.4-1.3-4.1c0-1.7,0.5-3,1.5-4.1c1-1,2.2-1.6,3.6-1.6c1,0,1.9,0.3,2.6,0.8c0.7,0.6,1,1.1,1,1.7c0,0.3-0.1,0.5-0.3,0.7
			c-0.2,0.2-0.5,0.3-0.8,0.3c-0.5,0-0.8-0.1-1-0.4c-0.1-0.2-0.2-0.5-0.3-0.9c0-0.5-0.2-0.8-0.5-1c-0.3-0.2-0.6-0.3-1.1-0.3
			c-0.8,0-1.4,0.3-1.9,0.9c-0.6,0.8-0.9,1.8-0.9,3c0,1.3,0.3,2.4,0.9,3.4c0.6,1,1.5,1.5,2.5,1.5c0.8,0,1.4-0.3,2-0.8
			c0.4-0.4,0.8-1,1.2-1.9L200.7,92.2z"/>
		<path class="st0" d="M204.5,89.6c0,1.6,0.4,2.8,1.1,3.7c0.8,0.9,1.7,1.3,2.7,1.3c0.7,0,1.3-0.2,1.8-0.6c0.5-0.4,0.9-1,1.3-2
			l0.4,0.2c-0.2,1.1-0.6,2-1.4,2.9c-0.8,0.9-1.8,1.3-2.9,1.3c-1.3,0-2.4-0.5-3.3-1.5c-0.9-1-1.4-2.3-1.4-4c0-1.8,0.5-3.2,1.4-4.3
			c0.9-1,2.1-1.5,3.5-1.5c1.2,0,2.2,0.4,2.9,1.2c0.8,0.8,1.1,1.8,1.1,3.1H204.5z M204.5,88.9h4.9c0-0.7-0.1-1.2-0.2-1.4
			c-0.2-0.4-0.5-0.8-0.9-1c-0.4-0.2-0.8-0.4-1.2-0.4c-0.6,0-1.2,0.2-1.7,0.7C204.9,87.3,204.6,88,204.5,88.9z"/>
		<path class="st0" d="M221.2,95c-0.5,0.5-1,0.9-1.5,1.2c-0.5,0.2-1,0.4-1.6,0.4c-1.2,0-2.2-0.5-3-1.5c-0.9-1-1.3-2.2-1.3-3.7
			c0-1.5,0.5-2.9,1.4-4.2c1-1.3,2.2-1.9,3.7-1.9c0.9,0,1.7,0.3,2.3,0.9v-2c0-1.2,0-2-0.1-2.2c-0.1-0.3-0.1-0.5-0.3-0.6
			c-0.1-0.1-0.3-0.2-0.5-0.2c-0.2,0-0.5,0.1-0.8,0.2l-0.2-0.4l3.2-1.3h0.5V92c0,1.2,0,2,0.1,2.3c0.1,0.3,0.2,0.5,0.3,0.6
			c0.1,0.1,0.3,0.2,0.4,0.2c0.2,0,0.5-0.1,0.8-0.2l0.1,0.4l-3.2,1.3h-0.5V95z M221.2,94.2v-5.5c0-0.5-0.2-1-0.4-1.4
			c-0.2-0.4-0.5-0.8-0.9-1c-0.4-0.2-0.8-0.3-1.1-0.3c-0.7,0-1.3,0.3-1.8,0.9c-0.7,0.8-1.1,2-1.1,3.5c0,1.6,0.3,2.8,1,3.6
			c0.7,0.8,1.4,1.2,2.3,1.2C219.9,95.3,220.6,94.9,221.2,94.2z"/>
		<path class="st0" d="M242.6,80.1v5.4h-0.4c-0.1-1-0.4-1.9-0.7-2.5c-0.4-0.6-0.9-1.1-1.5-1.5c-0.7-0.4-1.4-0.5-2.1-0.5
			c-0.8,0-1.5,0.2-2,0.7c-0.5,0.5-0.8,1-0.8,1.7c0,0.5,0.2,0.9,0.5,1.3c0.5,0.6,1.6,1.4,3.4,2.3c1.5,0.8,2.5,1.4,3,1.8
			c0.5,0.4,1,0.9,1.2,1.5c0.3,0.6,0.4,1.2,0.4,1.8c0,1.2-0.5,2.2-1.4,3.1c-0.9,0.9-2.1,1.3-3.6,1.3c-0.5,0-0.9,0-1.3-0.1
			c-0.2,0-0.7-0.2-1.5-0.4c-0.8-0.2-1.2-0.4-1.4-0.4c-0.2,0-0.3,0.1-0.5,0.2c-0.1,0.1-0.2,0.4-0.2,0.7h-0.4v-5.4h0.4
			c0.2,1.1,0.5,2,0.8,2.5c0.3,0.6,0.9,1,1.6,1.4c0.7,0.4,1.5,0.6,2.3,0.6c1,0,1.7-0.3,2.3-0.8c0.6-0.5,0.8-1.1,0.8-1.8
			c0-0.4-0.1-0.8-0.3-1.2c-0.2-0.4-0.5-0.8-1-1.1c-0.3-0.2-1.1-0.7-2.5-1.5c-1.3-0.8-2.3-1.4-2.9-1.8c-0.6-0.4-1-0.9-1.3-1.5
			c-0.3-0.5-0.4-1.1-0.4-1.8c0-1.1,0.4-2.1,1.3-2.9c0.9-0.8,2-1.2,3.3-1.2c0.8,0,1.7,0.2,2.7,0.6c0.4,0.2,0.7,0.3,0.9,0.3
			c0.2,0,0.4-0.1,0.5-0.2c0.1-0.1,0.2-0.4,0.3-0.7H242.6z"/>
		<path class="st0" d="M249.3,82.1v3.5h2.5v0.8h-2.5v6.9c0,0.7,0.1,1.2,0.3,1.4c0.2,0.2,0.5,0.4,0.8,0.4c0.3,0,0.5-0.1,0.7-0.2
			c0.2-0.2,0.4-0.4,0.6-0.7h0.5c-0.3,0.8-0.7,1.3-1.1,1.7c-0.5,0.4-1,0.6-1.5,0.6c-0.4,0-0.7-0.1-1-0.3c-0.3-0.2-0.6-0.5-0.8-0.8
			c-0.2-0.4-0.2-0.9-0.2-1.7v-7.1h-1.7V86c0.4-0.2,0.9-0.5,1.3-0.9c0.4-0.4,0.8-0.9,1.2-1.4c0.2-0.3,0.4-0.8,0.7-1.6H249.3z"/>
		<path class="st0" d="M262.6,85.6V92c0,1.2,0,2,0.1,2.3c0.1,0.3,0.2,0.5,0.3,0.6c0.1,0.1,0.3,0.2,0.4,0.2c0.2,0,0.5-0.1,0.8-0.2
			l0.2,0.4l-3.2,1.3h-0.5v-2.3c-0.9,1-1.6,1.6-2.1,1.9c-0.5,0.3-1,0.4-1.5,0.4c-0.6,0-1.1-0.2-1.5-0.5s-0.7-0.8-0.9-1.3
			c-0.2-0.5-0.3-1.3-0.3-2.3v-4.7c0-0.5-0.1-0.9-0.2-1c-0.1-0.2-0.3-0.3-0.5-0.4c-0.2-0.1-0.6-0.2-1.2-0.1v-0.4h3.7v7.1
			c0,1,0.2,1.6,0.5,1.9c0.3,0.3,0.8,0.5,1.2,0.5c0.3,0,0.7-0.1,1.1-0.3c0.4-0.2,0.9-0.6,1.5-1.2v-6c0-0.6-0.1-1-0.3-1.2
			c-0.2-0.2-0.7-0.3-1.4-0.3v-0.4H262.6z"/>
		<path class="st0" d="M273.1,95c-0.5,0.5-1,0.9-1.5,1.2c-0.5,0.2-1,0.4-1.6,0.4c-1.2,0-2.2-0.5-3-1.5c-0.9-1-1.3-2.2-1.3-3.7
			c0-1.5,0.5-2.9,1.4-4.2c1-1.3,2.2-1.9,3.7-1.9c0.9,0,1.7,0.3,2.3,0.9v-2c0-1.2,0-2-0.1-2.2s-0.1-0.5-0.3-0.6
			c-0.1-0.1-0.3-0.2-0.5-0.2c-0.2,0-0.5,0.1-0.8,0.2l-0.2-0.4l3.2-1.3h0.5V92c0,1.2,0,2,0.1,2.3c0.1,0.3,0.2,0.5,0.3,0.6
			c0.1,0.1,0.3,0.2,0.4,0.2c0.2,0,0.5-0.1,0.8-0.2l0.1,0.4l-3.2,1.3h-0.5V95z M273.1,94.2v-5.5c0-0.5-0.2-1-0.4-1.4
			c-0.2-0.4-0.5-0.8-0.9-1c-0.4-0.2-0.8-0.3-1.1-0.3c-0.7,0-1.3,0.3-1.8,0.9c-0.7,0.8-1.1,2-1.1,3.5c0,1.6,0.3,2.8,1,3.6
			c0.7,0.8,1.4,1.2,2.3,1.2C271.8,95.3,272.5,94.9,273.1,94.2z"/>
		<path class="st0" d="M281.6,85.3v8.5c0,0.7,0,1.1,0.1,1.3c0.1,0.2,0.2,0.4,0.4,0.5c0.2,0.1,0.5,0.2,1,0.2v0.4h-5.2v-0.4
			c0.5,0,0.9,0,1-0.2c0.2-0.1,0.3-0.3,0.4-0.5c0.1-0.2,0.2-0.7,0.2-1.3v-4.1c0-1.2,0-1.9-0.1-2.2c-0.1-0.2-0.1-0.4-0.3-0.5
			c-0.1-0.1-0.3-0.1-0.5-0.1c-0.2,0-0.5,0.1-0.8,0.2l-0.2-0.4l3.2-1.3H281.6z M280.7,79.7c0.3,0,0.6,0.1,0.8,0.3
			c0.2,0.2,0.3,0.5,0.3,0.8c0,0.3-0.1,0.6-0.3,0.8c-0.2,0.2-0.5,0.3-0.8,0.3c-0.3,0-0.6-0.1-0.8-0.3c-0.2-0.2-0.3-0.5-0.3-0.8
			c0-0.3,0.1-0.6,0.3-0.8C280.1,79.8,280.3,79.7,280.7,79.7z"/>
		<path class="st0" d="M286.8,89.6c0,1.6,0.4,2.8,1.1,3.7c0.8,0.9,1.7,1.3,2.7,1.3c0.7,0,1.3-0.2,1.8-0.6c0.5-0.4,0.9-1,1.3-2
			l0.4,0.2c-0.2,1.1-0.6,2-1.4,2.9c-0.8,0.9-1.8,1.3-2.9,1.3c-1.3,0-2.4-0.5-3.3-1.5c-0.9-1-1.4-2.3-1.4-4c0-1.8,0.5-3.2,1.4-4.3
			c0.9-1,2.1-1.5,3.5-1.5c1.2,0,2.2,0.4,2.9,1.2c0.8,0.8,1.1,1.8,1.1,3.1H286.8z M286.8,88.9h4.9c0-0.7-0.1-1.2-0.2-1.4
			c-0.2-0.4-0.5-0.8-0.9-1c-0.4-0.2-0.8-0.4-1.2-0.4c-0.6,0-1.2,0.2-1.7,0.7C287.2,87.3,286.9,88,286.8,88.9z"/>
		<path class="st0" d="M302.9,85.3v3.6h-0.4c-0.3-1.1-0.7-1.9-1.1-2.3c-0.5-0.4-1-0.6-1.8-0.6c-0.5,0-1,0.1-1.3,0.4
			c-0.3,0.3-0.5,0.6-0.5,1c0,0.4,0.1,0.8,0.4,1.1c0.2,0.3,0.7,0.7,1.5,1l1.7,0.8c1.6,0.8,2.4,1.8,2.4,3c0,1-0.4,1.7-1.1,2.3
			c-0.7,0.6-1.5,0.9-2.5,0.9c-0.6,0-1.4-0.1-2.2-0.3c-0.3-0.1-0.5-0.1-0.6-0.1c-0.2,0-0.3,0.1-0.4,0.3h-0.4v-3.8h0.4
			c0.2,1.1,0.6,1.9,1.2,2.4c0.6,0.5,1.3,0.8,2.1,0.8c0.5,0,1-0.2,1.3-0.5c0.3-0.3,0.5-0.7,0.5-1.1c0-0.5-0.2-1-0.6-1.3
			c-0.4-0.4-1.1-0.8-2.2-1.4c-1.1-0.6-1.9-1.1-2.2-1.5c-0.3-0.4-0.5-1-0.5-1.7c0-0.9,0.3-1.6,0.9-2.2c0.6-0.6,1.4-0.9,2.3-0.9
			c0.4,0,0.9,0.1,1.5,0.3c0.4,0.1,0.7,0.2,0.8,0.2c0.1,0,0.2,0,0.3-0.1c0.1-0.1,0.2-0.2,0.2-0.4H302.9z"/>
		<path class="st0" d="M315.9,85.3v8.5c0,0.7,0,1.1,0.1,1.3c0.1,0.2,0.2,0.4,0.4,0.5c0.2,0.1,0.5,0.2,1,0.2v0.4h-5.2v-0.4
			c0.5,0,0.9,0,1-0.2c0.2-0.1,0.3-0.3,0.4-0.5c0.1-0.2,0.2-0.7,0.2-1.3v-4.1c0-1.2,0-1.9-0.1-2.2c-0.1-0.2-0.1-0.4-0.3-0.5
			c-0.1-0.1-0.3-0.1-0.5-0.1c-0.2,0-0.5,0.1-0.8,0.2l-0.2-0.4l3.2-1.3H315.9z M314.9,79.7c0.3,0,0.6,0.1,0.8,0.3
			c0.2,0.2,0.3,0.5,0.3,0.8c0,0.3-0.1,0.6-0.3,0.8c-0.2,0.2-0.5,0.3-0.8,0.3c-0.3,0-0.6-0.1-0.8-0.3c-0.2-0.2-0.3-0.5-0.3-0.8
			c0-0.3,0.1-0.6,0.3-0.8C314.3,79.8,314.6,79.7,314.9,79.7z"/>
		<path class="st0" d="M322.4,87.5c1.2-1.5,2.4-2.3,3.6-2.3c0.6,0,1.1,0.1,1.5,0.4c0.4,0.3,0.8,0.8,1,1.4c0.2,0.5,0.3,1.2,0.3,2.1
			v4.5c0,0.7,0.1,1.1,0.2,1.4c0.1,0.2,0.2,0.3,0.4,0.5c0.2,0.1,0.5,0.2,1,0.2v0.4h-5.3v-0.4h0.2c0.5,0,0.8-0.1,1-0.2
			c0.2-0.2,0.3-0.4,0.4-0.7c0-0.1,0-0.5,0-1.1v-4.4c0-1-0.1-1.7-0.4-2.1c-0.3-0.4-0.7-0.7-1.3-0.7c-0.9,0-1.8,0.5-2.7,1.5v5.6
			c0,0.7,0,1.2,0.1,1.3c0.1,0.2,0.3,0.4,0.4,0.5c0.2,0.1,0.6,0.2,1.2,0.2v0.4h-5.3v-0.4h0.2c0.5,0,0.9-0.1,1.1-0.4
			c0.2-0.3,0.3-0.8,0.3-1.6v-3.9c0-1.3,0-2.1-0.1-2.3c-0.1-0.3-0.1-0.5-0.3-0.6c-0.1-0.1-0.3-0.2-0.5-0.2c-0.2,0-0.5,0.1-0.8,0.2
			l-0.2-0.4l3.2-1.3h0.5V87.5z"/>
		<path class="st0" d="M342.2,87.8h7.3v-4.5c0-0.8-0.1-1.3-0.2-1.6c-0.1-0.2-0.2-0.4-0.5-0.5c-0.3-0.2-0.7-0.3-1.1-0.3h-0.6v-0.4
			h6.7v0.4h-0.6c-0.4,0-0.7,0.1-1.1,0.3c-0.2,0.1-0.4,0.3-0.5,0.6c-0.1,0.3-0.1,0.8-0.1,1.5v10.2c0,0.8,0.1,1.3,0.2,1.6
			c0.1,0.2,0.2,0.4,0.5,0.5c0.3,0.2,0.7,0.3,1.1,0.3h0.6v0.4h-6.7v-0.4h0.6c0.6,0,1.1-0.2,1.4-0.6c0.2-0.2,0.3-0.8,0.3-1.8v-4.8
			h-7.3v4.8c0,0.8,0.1,1.3,0.2,1.6c0.1,0.2,0.2,0.4,0.5,0.5c0.3,0.2,0.7,0.3,1.1,0.3h0.6v0.4h-6.7v-0.4h0.6c0.6,0,1.1-0.2,1.4-0.6
			c0.2-0.2,0.3-0.8,0.3-1.8V83.3c0-0.8-0.1-1.3-0.2-1.6c-0.1-0.2-0.2-0.4-0.5-0.5c-0.3-0.2-0.7-0.3-1.1-0.3h-0.6v-0.4h6.7v0.4h-0.6
			c-0.4,0-0.7,0.1-1.1,0.3c-0.2,0.1-0.4,0.3-0.5,0.6c-0.1,0.3-0.1,0.8-0.1,1.5V87.8z"/>
		<path class="st0" d="M365,85.6V92c0,1.2,0,2,0.1,2.3c0.1,0.3,0.2,0.5,0.3,0.6c0.1,0.1,0.3,0.2,0.4,0.2c0.2,0,0.5-0.1,0.8-0.2
			l0.2,0.4l-3.2,1.3h-0.5v-2.3c-0.9,1-1.6,1.6-2.1,1.9c-0.5,0.3-1,0.4-1.5,0.4c-0.6,0-1.1-0.2-1.5-0.5c-0.4-0.3-0.7-0.8-0.9-1.3
			c-0.2-0.5-0.3-1.3-0.3-2.3v-4.7c0-0.5-0.1-0.9-0.2-1c-0.1-0.2-0.3-0.3-0.5-0.4c-0.2-0.1-0.6-0.2-1.2-0.1v-0.4h3.7v7.1
			c0,1,0.2,1.6,0.5,1.9c0.3,0.3,0.8,0.5,1.2,0.5c0.3,0,0.7-0.1,1.1-0.3c0.4-0.2,0.9-0.6,1.5-1.2v-6c0-0.6-0.1-1-0.3-1.2
			c-0.2-0.2-0.7-0.3-1.4-0.3v-0.4H365z"/>
		<path class="st0" d="M371.2,87.5c0.8-0.8,1.2-1.2,1.4-1.3c0.3-0.3,0.7-0.5,1.1-0.7c0.4-0.2,0.8-0.2,1.2-0.2c0.7,0,1.2,0.2,1.7,0.6
			c0.5,0.4,0.8,0.9,1,1.7c0.8-0.9,1.5-1.5,2-1.8c0.5-0.3,1.1-0.4,1.7-0.4c0.6,0,1.1,0.1,1.5,0.4c0.4,0.3,0.8,0.8,1,1.4
			c0.2,0.4,0.3,1.2,0.3,2.1v4.6c0,0.7,0.1,1.1,0.2,1.4c0.1,0.2,0.2,0.3,0.4,0.4c0.2,0.1,0.5,0.2,1,0.2v0.4h-5.2v-0.4h0.2
			c0.5,0,0.8-0.1,1.1-0.3c0.2-0.1,0.3-0.3,0.4-0.6c0-0.1,0-0.5,0-1.1v-4.6c0-0.9-0.1-1.5-0.3-1.8c-0.3-0.5-0.8-0.7-1.5-0.7
			c-0.4,0-0.8,0.1-1.2,0.3c-0.4,0.2-0.9,0.6-1.5,1.1l0,0.1l0,0.5v5.1c0,0.7,0,1.2,0.1,1.4c0.1,0.2,0.2,0.3,0.5,0.4
			c0.2,0.1,0.6,0.2,1.1,0.2v0.4H374v-0.4c0.6,0,1-0.1,1.2-0.2c0.2-0.1,0.4-0.3,0.5-0.6c0-0.1,0.1-0.5,0.1-1.1v-4.6
			c0-0.9-0.1-1.5-0.4-1.9c-0.3-0.5-0.8-0.7-1.4-0.7c-0.4,0-0.8,0.1-1.2,0.3c-0.6,0.3-1.1,0.7-1.5,1.1v5.7c0,0.7,0,1.1,0.1,1.4
			c0.1,0.2,0.2,0.4,0.4,0.5c0.2,0.1,0.6,0.2,1.2,0.2v0.4h-5.3v-0.4c0.5,0,0.8-0.1,1-0.2c0.2-0.1,0.3-0.3,0.4-0.5
			c0.1-0.2,0.2-0.7,0.2-1.3v-4.1c0-1.2,0-1.9-0.1-2.3c-0.1-0.3-0.1-0.4-0.3-0.5c-0.1-0.1-0.3-0.1-0.5-0.1c-0.2,0-0.5,0.1-0.8,0.2
			l-0.2-0.4l3.2-1.3h0.5V87.5z"/>
		<path class="st0" d="M393,94.7c-1.1,0.8-1.8,1.3-2.1,1.5c-0.4,0.2-0.9,0.3-1.3,0.3c-0.7,0-1.3-0.3-1.8-0.8c-0.5-0.5-0.7-1.2-0.7-2
			c0-0.5,0.1-1,0.3-1.3c0.3-0.5,0.9-1,1.7-1.5c0.8-0.5,2.1-1,3.9-1.7v-0.4c0-1.1-0.2-1.8-0.5-2.2c-0.3-0.4-0.8-0.6-1.5-0.6
			c-0.5,0-0.9,0.1-1.2,0.4c-0.3,0.3-0.4,0.6-0.4,0.9l0,0.7c0,0.4-0.1,0.6-0.3,0.8c-0.2,0.2-0.4,0.3-0.7,0.3c-0.3,0-0.5-0.1-0.7-0.3
			c-0.2-0.2-0.3-0.5-0.3-0.8c0-0.7,0.3-1.3,1-1.8c0.7-0.6,1.6-0.8,2.9-0.8c0.9,0,1.7,0.2,2.3,0.5c0.5,0.2,0.8,0.6,1,1.1
			c0.1,0.3,0.2,1,0.2,2v3.6c0,1,0,1.6,0.1,1.9c0,0.2,0.1,0.4,0.2,0.5c0.1,0.1,0.2,0.1,0.3,0.1c0.1,0,0.2,0,0.3-0.1
			c0.2-0.1,0.5-0.4,0.9-0.8v0.6c-0.9,1.2-1.7,1.7-2.5,1.7c-0.4,0-0.7-0.1-0.9-0.4C393.1,95.8,393,95.3,393,94.7z M393,93.9v-4
			c-1.2,0.5-1.9,0.8-2.3,1c-0.6,0.3-1,0.7-1.3,1.1c-0.3,0.4-0.4,0.8-0.4,1.2c0,0.6,0.2,1,0.5,1.4c0.3,0.4,0.7,0.6,1.1,0.6
			C391.3,95.1,392.1,94.7,393,93.9z"/>
		<path class="st0" d="M401.1,87.5c1.2-1.5,2.4-2.3,3.6-2.3c0.6,0,1.1,0.1,1.5,0.4c0.4,0.3,0.8,0.8,1,1.4c0.2,0.5,0.3,1.2,0.3,2.1
			v4.5c0,0.7,0.1,1.1,0.2,1.4c0.1,0.2,0.2,0.3,0.4,0.5c0.2,0.1,0.5,0.2,1,0.2v0.4h-5.3v-0.4h0.2c0.5,0,0.8-0.1,1-0.2
			c0.2-0.2,0.3-0.4,0.4-0.7c0-0.1,0-0.5,0-1.1v-4.4c0-1-0.1-1.7-0.4-2.1c-0.3-0.4-0.7-0.7-1.3-0.7c-0.9,0-1.8,0.5-2.7,1.5v5.6
			c0,0.7,0,1.2,0.1,1.3c0.1,0.2,0.3,0.4,0.4,0.5c0.2,0.1,0.6,0.2,1.2,0.2v0.4h-5.3v-0.4h0.2c0.5,0,0.9-0.1,1.1-0.4
			c0.2-0.3,0.3-0.8,0.3-1.6v-3.9c0-1.3,0-2.1-0.1-2.3c-0.1-0.3-0.1-0.5-0.3-0.6c-0.1-0.1-0.3-0.2-0.5-0.2c-0.2,0-0.5,0.1-0.8,0.2
			l-0.2-0.4l3.2-1.3h0.5V87.5z"/>
		<path class="st0" d="M414,85.3v8.5c0,0.7,0,1.1,0.1,1.3c0.1,0.2,0.2,0.4,0.4,0.5c0.2,0.1,0.5,0.2,1,0.2v0.4h-5.2v-0.4
			c0.5,0,0.9,0,1-0.2c0.2-0.1,0.3-0.3,0.4-0.5c0.1-0.2,0.2-0.7,0.2-1.3v-4.1c0-1.2,0-1.9-0.1-2.2c-0.1-0.2-0.1-0.4-0.3-0.5
			c-0.1-0.1-0.3-0.1-0.5-0.1c-0.2,0-0.5,0.1-0.8,0.2l-0.2-0.4l3.2-1.3H414z M413.1,79.7c0.3,0,0.6,0.1,0.8,0.3
			c0.2,0.2,0.3,0.5,0.3,0.8c0,0.3-0.1,0.6-0.3,0.8c-0.2,0.2-0.5,0.3-0.8,0.3c-0.3,0-0.6-0.1-0.8-0.3c-0.2-0.2-0.3-0.5-0.3-0.8
			c0-0.3,0.1-0.6,0.3-0.8C412.5,79.8,412.7,79.7,413.1,79.7z"/>
		<path class="st0" d="M420.5,82.1v3.5h2.5v0.8h-2.5v6.9c0,0.7,0.1,1.2,0.3,1.4c0.2,0.2,0.5,0.4,0.8,0.4c0.3,0,0.5-0.1,0.7-0.2
			c0.2-0.2,0.4-0.4,0.6-0.7h0.5c-0.3,0.8-0.7,1.3-1.1,1.7c-0.5,0.4-1,0.6-1.5,0.6c-0.4,0-0.7-0.1-1-0.3c-0.3-0.2-0.6-0.5-0.8-0.8
			c-0.2-0.4-0.2-0.9-0.2-1.7v-7.1h-1.7V86c0.4-0.2,0.9-0.5,1.3-0.9c0.4-0.4,0.8-0.9,1.2-1.4c0.2-0.3,0.4-0.8,0.7-1.6H420.5z"/>
		<path class="st0" d="M428.2,85.3v8.5c0,0.7,0,1.1,0.1,1.3c0.1,0.2,0.2,0.4,0.4,0.5c0.2,0.1,0.5,0.2,1,0.2v0.4h-5.2v-0.4
			c0.5,0,0.9,0,1-0.2c0.2-0.1,0.3-0.3,0.4-0.5c0.1-0.2,0.2-0.7,0.2-1.3v-4.1c0-1.2,0-1.9-0.1-2.2c-0.1-0.2-0.1-0.4-0.3-0.5
			c-0.1-0.1-0.3-0.1-0.5-0.1c-0.2,0-0.5,0.1-0.8,0.2l-0.2-0.4l3.2-1.3H428.2z M427.2,79.7c0.3,0,0.6,0.1,0.8,0.3
			c0.2,0.2,0.3,0.5,0.3,0.8c0,0.3-0.1,0.6-0.3,0.8c-0.2,0.2-0.5,0.3-0.8,0.3c-0.3,0-0.6-0.1-0.8-0.3c-0.2-0.2-0.3-0.5-0.3-0.8
			c0-0.3,0.1-0.6,0.3-0.8C426.6,79.8,426.9,79.7,427.2,79.7z"/>
		<path class="st0" d="M433.4,89.6c0,1.6,0.4,2.8,1.1,3.7c0.8,0.9,1.7,1.3,2.7,1.3c0.7,0,1.3-0.2,1.8-0.6c0.5-0.4,0.9-1,1.3-2
			l0.4,0.2c-0.2,1.1-0.6,2-1.4,2.9c-0.8,0.9-1.8,1.3-2.9,1.3c-1.3,0-2.4-0.5-3.3-1.5c-0.9-1-1.4-2.3-1.4-4c0-1.8,0.5-3.2,1.4-4.3
			c0.9-1,2.1-1.5,3.5-1.5c1.2,0,2.2,0.4,2.9,1.2c0.8,0.8,1.1,1.8,1.1,3.1H433.4z M433.4,88.9h4.9c0-0.7-0.1-1.2-0.2-1.4
			c-0.2-0.4-0.5-0.8-0.9-1c-0.4-0.2-0.8-0.4-1.2-0.4c-0.6,0-1.2,0.2-1.7,0.7C433.8,87.3,433.5,88,433.4,88.9z"/>
		<path class="st0" d="M449.5,85.3v3.6h-0.4c-0.3-1.1-0.7-1.9-1.1-2.3c-0.5-0.4-1-0.6-1.8-0.6c-0.5,0-1,0.1-1.3,0.4
			c-0.3,0.3-0.5,0.6-0.5,1c0,0.4,0.1,0.8,0.4,1.1c0.2,0.3,0.7,0.7,1.5,1l1.7,0.8c1.6,0.8,2.4,1.8,2.4,3c0,1-0.4,1.7-1.1,2.3
			c-0.7,0.6-1.5,0.9-2.5,0.9c-0.6,0-1.4-0.1-2.2-0.3c-0.3-0.1-0.5-0.1-0.6-0.1c-0.2,0-0.3,0.1-0.4,0.3h-0.4v-3.8h0.4
			c0.2,1.1,0.6,1.9,1.2,2.4c0.6,0.5,1.3,0.8,2.1,0.8c0.5,0,1-0.2,1.3-0.5c0.3-0.3,0.5-0.7,0.5-1.1c0-0.5-0.2-1-0.6-1.3
			c-0.4-0.4-1.1-0.8-2.2-1.4c-1.1-0.6-1.9-1.1-2.2-1.5c-0.3-0.4-0.5-1-0.5-1.7c0-0.9,0.3-1.6,0.9-2.2c0.6-0.6,1.4-0.9,2.3-0.9
			c0.4,0,0.9,0.1,1.5,0.3c0.4,0.1,0.7,0.2,0.8,0.2c0.1,0,0.2,0,0.3-0.1c0.1-0.1,0.2-0.2,0.2-0.4H449.5z"/>
		<path class="st0" d="M464.8,94.7c-1.1,0.8-1.8,1.3-2.1,1.5c-0.4,0.2-0.9,0.3-1.3,0.3c-0.7,0-1.3-0.3-1.8-0.8
			c-0.5-0.5-0.7-1.2-0.7-2c0-0.5,0.1-1,0.3-1.3c0.3-0.5,0.9-1,1.7-1.5c0.8-0.5,2.1-1,3.9-1.7v-0.4c0-1.1-0.2-1.8-0.5-2.2
			c-0.3-0.4-0.8-0.6-1.5-0.6c-0.5,0-0.9,0.1-1.2,0.4c-0.3,0.3-0.4,0.6-0.4,0.9l0,0.7c0,0.4-0.1,0.6-0.3,0.8
			c-0.2,0.2-0.4,0.3-0.7,0.3c-0.3,0-0.5-0.1-0.7-0.3c-0.2-0.2-0.3-0.5-0.3-0.8c0-0.7,0.3-1.3,1-1.8c0.7-0.6,1.6-0.8,2.9-0.8
			c0.9,0,1.7,0.2,2.3,0.5c0.5,0.2,0.8,0.6,1,1.1c0.1,0.3,0.2,1,0.2,2v3.6c0,1,0,1.6,0.1,1.9c0,0.2,0.1,0.4,0.2,0.5
			c0.1,0.1,0.2,0.1,0.3,0.1c0.1,0,0.2,0,0.3-0.1c0.2-0.1,0.5-0.4,0.9-0.8v0.6c-0.9,1.2-1.7,1.7-2.5,1.7c-0.4,0-0.7-0.1-0.9-0.4
			C464.9,95.8,464.8,95.3,464.8,94.7z M464.8,93.9v-4c-1.2,0.5-1.9,0.8-2.3,1c-0.6,0.3-1,0.7-1.3,1.1c-0.3,0.4-0.4,0.8-0.4,1.2
			c0,0.6,0.2,1,0.5,1.4c0.3,0.4,0.7,0.6,1.1,0.6C463,95.1,463.8,94.7,464.8,93.9z"/>
		<path class="st0" d="M472.9,87.5c1.2-1.5,2.4-2.3,3.6-2.3c0.6,0,1.1,0.1,1.5,0.4c0.4,0.3,0.8,0.8,1,1.4c0.2,0.5,0.3,1.2,0.3,2.1
			v4.5c0,0.7,0.1,1.1,0.2,1.4c0.1,0.2,0.2,0.3,0.4,0.5c0.2,0.1,0.5,0.2,1,0.2v0.4h-5.3v-0.4h0.2c0.5,0,0.8-0.1,1-0.2
			c0.2-0.2,0.3-0.4,0.4-0.7c0-0.1,0-0.5,0-1.1v-4.4c0-1-0.1-1.7-0.4-2.1c-0.3-0.4-0.7-0.7-1.3-0.7c-0.9,0-1.8,0.5-2.7,1.5v5.6
			c0,0.7,0,1.2,0.1,1.3c0.1,0.2,0.3,0.4,0.4,0.5c0.2,0.1,0.6,0.2,1.2,0.2v0.4h-5.3v-0.4h0.2c0.5,0,0.9-0.1,1.1-0.4
			c0.2-0.3,0.3-0.8,0.3-1.6v-3.9c0-1.3,0-2.1-0.1-2.3c-0.1-0.3-0.1-0.5-0.3-0.6c-0.1-0.1-0.3-0.2-0.5-0.2c-0.2,0-0.5,0.1-0.8,0.2
			l-0.2-0.4l3.2-1.3h0.5V87.5z"/>
		<path class="st0" d="M489.6,95c-0.5,0.5-1,0.9-1.5,1.2c-0.5,0.2-1,0.4-1.6,0.4c-1.2,0-2.2-0.5-3-1.5c-0.9-1-1.3-2.2-1.3-3.7
			c0-1.5,0.5-2.9,1.4-4.2c1-1.3,2.2-1.9,3.7-1.9c0.9,0,1.7,0.3,2.3,0.9v-2c0-1.2,0-2-0.1-2.2c-0.1-0.3-0.1-0.5-0.3-0.6
			c-0.1-0.1-0.3-0.2-0.5-0.2c-0.2,0-0.5,0.1-0.8,0.2l-0.2-0.4l3.2-1.3h0.5V92c0,1.2,0,2,0.1,2.3c0.1,0.3,0.2,0.5,0.3,0.6
			c0.1,0.1,0.3,0.2,0.4,0.2c0.2,0,0.5-0.1,0.8-0.2l0.1,0.4l-3.2,1.3h-0.5V95z M489.6,94.2v-5.5c0-0.5-0.2-1-0.4-1.4
			c-0.2-0.4-0.5-0.8-0.9-1c-0.4-0.2-0.8-0.3-1.1-0.3c-0.7,0-1.3,0.3-1.8,0.9c-0.7,0.8-1.1,2-1.1,3.5c0,1.6,0.3,2.8,1,3.6
			c0.7,0.8,1.4,1.2,2.3,1.2C488.3,95.3,489,94.9,489.6,94.2z"/>
		<path class="st0" d="M511,80.1v5.4h-0.4c-0.1-1-0.4-1.9-0.7-2.5c-0.4-0.6-0.9-1.1-1.5-1.5c-0.7-0.4-1.4-0.5-2.1-0.5
			c-0.8,0-1.5,0.2-2,0.7c-0.5,0.5-0.8,1-0.8,1.7c0,0.5,0.2,0.9,0.5,1.3c0.5,0.6,1.6,1.4,3.4,2.3c1.5,0.8,2.5,1.4,3,1.8
			c0.5,0.4,1,0.9,1.2,1.5c0.3,0.6,0.4,1.2,0.4,1.8c0,1.2-0.5,2.2-1.4,3.1c-0.9,0.9-2.1,1.3-3.6,1.3c-0.5,0-0.9,0-1.3-0.1
			c-0.2,0-0.7-0.2-1.5-0.4c-0.8-0.2-1.2-0.4-1.4-0.4c-0.2,0-0.3,0.1-0.5,0.2c-0.1,0.1-0.2,0.4-0.2,0.7h-0.4v-5.4h0.4
			c0.2,1.1,0.5,2,0.8,2.5c0.3,0.6,0.9,1,1.6,1.4c0.7,0.4,1.5,0.6,2.3,0.6c1,0,1.7-0.3,2.3-0.8c0.6-0.5,0.8-1.1,0.8-1.8
			c0-0.4-0.1-0.8-0.3-1.2c-0.2-0.4-0.5-0.8-1-1.1c-0.3-0.2-1.1-0.7-2.5-1.5c-1.3-0.8-2.3-1.4-2.9-1.8c-0.6-0.4-1-0.9-1.3-1.5
			c-0.3-0.5-0.4-1.1-0.4-1.8c0-1.1,0.4-2.1,1.3-2.9c0.9-0.8,2-1.2,3.3-1.2c0.8,0,1.7,0.2,2.7,0.6c0.4,0.2,0.7,0.3,0.9,0.3
			c0.2,0,0.4-0.1,0.5-0.2c0.1-0.1,0.2-0.4,0.3-0.7H511z"/>
		<path class="st0" d="M519.8,85.3c1.6,0,2.9,0.6,3.9,1.8c0.8,1,1.2,2.2,1.2,3.6c0,1-0.2,1.9-0.7,2.9c-0.5,1-1.1,1.7-1.9,2.2
			c-0.8,0.5-1.7,0.7-2.7,0.7c-1.6,0-2.9-0.6-3.8-1.9c-0.8-1.1-1.2-2.3-1.2-3.6c0-1,0.2-1.9,0.7-2.9c0.5-1,1.1-1.7,1.9-2.1
			C518.1,85.5,518.9,85.3,519.8,85.3z M519.4,86c-0.4,0-0.8,0.1-1.2,0.4c-0.4,0.2-0.7,0.7-1,1.3c-0.3,0.6-0.4,1.4-0.4,2.4
			c0,1.5,0.3,2.9,0.9,4c0.6,1.1,1.4,1.7,2.4,1.7c0.8,0,1.4-0.3,1.9-0.9c0.5-0.6,0.7-1.7,0.7-3.2c0-1.9-0.4-3.4-1.2-4.5
			C521,86.4,520.3,86,519.4,86z"/>
		<path class="st0" d="M536,92.2c-0.3,1.4-0.8,2.5-1.7,3.2c-0.8,0.8-1.8,1.1-2.8,1.1c-1.2,0-2.3-0.5-3.2-1.5c-0.9-1-1.3-2.4-1.3-4.1
			c0-1.7,0.5-3,1.5-4.1c1-1,2.2-1.6,3.6-1.6c1,0,1.9,0.3,2.6,0.8c0.7,0.6,1,1.1,1,1.7c0,0.3-0.1,0.5-0.3,0.7
			c-0.2,0.2-0.5,0.3-0.8,0.3c-0.5,0-0.8-0.1-1-0.4c-0.1-0.2-0.2-0.5-0.3-0.9c0-0.5-0.2-0.8-0.5-1c-0.3-0.2-0.6-0.3-1.1-0.3
			c-0.8,0-1.4,0.3-1.9,0.9c-0.6,0.8-0.9,1.8-0.9,3c0,1.3,0.3,2.4,0.9,3.4c0.6,1,1.5,1.5,2.5,1.5c0.8,0,1.4-0.3,2-0.8
			c0.4-0.4,0.8-1,1.2-1.9L536,92.2z"/>
		<path class="st0" d="M541.6,85.3v8.5c0,0.7,0,1.1,0.1,1.3c0.1,0.2,0.2,0.4,0.4,0.5c0.2,0.1,0.5,0.2,1,0.2v0.4h-5.2v-0.4
			c0.5,0,0.9,0,1-0.2c0.2-0.1,0.3-0.3,0.4-0.5c0.1-0.2,0.2-0.7,0.2-1.3v-4.1c0-1.2,0-1.9-0.1-2.2c-0.1-0.2-0.1-0.4-0.3-0.5
			c-0.1-0.1-0.3-0.1-0.5-0.1c-0.2,0-0.5,0.1-0.8,0.2l-0.2-0.4l3.2-1.3H541.6z M540.7,79.7c0.3,0,0.6,0.1,0.8,0.3
			c0.2,0.2,0.3,0.5,0.3,0.8c0,0.3-0.1,0.6-0.3,0.8c-0.2,0.2-0.5,0.3-0.8,0.3c-0.3,0-0.6-0.1-0.8-0.3c-0.2-0.2-0.3-0.5-0.3-0.8
			c0-0.3,0.1-0.6,0.3-0.8C540,79.8,540.3,79.7,540.7,79.7z"/>
		<path class="st0" d="M551.1,94.7c-1.1,0.8-1.8,1.3-2.1,1.5c-0.4,0.2-0.9,0.3-1.3,0.3c-0.7,0-1.3-0.3-1.8-0.8
			c-0.5-0.5-0.7-1.2-0.7-2c0-0.5,0.1-1,0.3-1.3c0.3-0.5,0.9-1,1.7-1.5c0.8-0.5,2.1-1,3.9-1.7v-0.4c0-1.1-0.2-1.8-0.5-2.2
			c-0.3-0.4-0.8-0.6-1.5-0.6c-0.5,0-0.9,0.1-1.2,0.4c-0.3,0.3-0.4,0.6-0.4,0.9l0,0.7c0,0.4-0.1,0.6-0.3,0.8
			c-0.2,0.2-0.4,0.3-0.7,0.3c-0.3,0-0.5-0.1-0.7-0.3s-0.3-0.5-0.3-0.8c0-0.7,0.3-1.3,1-1.8c0.7-0.6,1.6-0.8,2.9-0.8
			c0.9,0,1.7,0.2,2.3,0.5c0.5,0.2,0.8,0.6,1,1.1c0.1,0.3,0.2,1,0.2,2v3.6c0,1,0,1.6,0.1,1.9c0,0.2,0.1,0.4,0.2,0.5
			c0.1,0.1,0.2,0.1,0.3,0.1c0.1,0,0.2,0,0.3-0.1c0.2-0.1,0.5-0.4,0.9-0.8v0.6c-0.9,1.2-1.7,1.7-2.5,1.7c-0.4,0-0.7-0.1-0.9-0.4
			C551.2,95.8,551.1,95.3,551.1,94.7z M551.1,93.9v-4c-1.2,0.5-1.9,0.8-2.3,1c-0.6,0.3-1,0.7-1.3,1.1c-0.3,0.4-0.4,0.8-0.4,1.2
			c0,0.6,0.2,1,0.5,1.4c0.3,0.4,0.7,0.6,1.1,0.6C549.3,95.1,550.1,94.7,551.1,93.9z"/>
		<path class="st0" d="M559.7,79.7v14.1c0,0.7,0,1.1,0.1,1.3c0.1,0.2,0.2,0.4,0.4,0.5c0.2,0.1,0.6,0.2,1.1,0.2v0.4h-5.2v-0.4
			c0.5,0,0.8,0,1-0.2c0.2-0.1,0.3-0.3,0.4-0.5c0.1-0.2,0.2-0.7,0.2-1.3v-9.7c0-1.2,0-1.9-0.1-2.2c-0.1-0.3-0.1-0.5-0.3-0.6
			c-0.1-0.1-0.3-0.2-0.5-0.2c-0.2,0-0.5,0.1-0.8,0.2L556,81l3.2-1.3H559.7z"/>
		<path class="st0" d="M579.7,80.1v5.4h-0.4c-0.1-1-0.4-1.9-0.7-2.5c-0.4-0.6-0.9-1.1-1.5-1.5c-0.7-0.4-1.4-0.5-2.1-0.5
			c-0.8,0-1.5,0.2-2,0.7c-0.5,0.5-0.8,1-0.8,1.7c0,0.5,0.2,0.9,0.5,1.3c0.5,0.6,1.6,1.4,3.4,2.3c1.5,0.8,2.5,1.4,3,1.8
			c0.5,0.4,1,0.9,1.2,1.5c0.3,0.6,0.4,1.2,0.4,1.8c0,1.2-0.5,2.2-1.4,3.1c-0.9,0.9-2.1,1.3-3.6,1.3c-0.5,0-0.9,0-1.3-0.1
			c-0.2,0-0.7-0.2-1.5-0.4c-0.8-0.2-1.2-0.4-1.4-0.4c-0.2,0-0.3,0.1-0.5,0.2c-0.1,0.1-0.2,0.4-0.2,0.7h-0.4v-5.4h0.4
			c0.2,1.1,0.5,2,0.8,2.5c0.3,0.6,0.9,1,1.6,1.4c0.7,0.4,1.5,0.6,2.3,0.6c1,0,1.7-0.3,2.3-0.8c0.6-0.5,0.8-1.1,0.8-1.8
			c0-0.4-0.1-0.8-0.3-1.2c-0.2-0.4-0.5-0.8-1-1.1c-0.3-0.2-1.1-0.7-2.5-1.5c-1.3-0.8-2.3-1.4-2.9-1.8c-0.6-0.4-1-0.9-1.3-1.5
			c-0.3-0.5-0.4-1.1-0.4-1.8c0-1.1,0.4-2.1,1.3-2.9c0.9-0.8,2-1.2,3.3-1.2c0.8,0,1.7,0.2,2.7,0.6c0.4,0.2,0.7,0.3,0.9,0.3
			c0.2,0,0.4-0.1,0.5-0.2c0.1-0.1,0.2-0.4,0.3-0.7H579.7z"/>
		<path class="st0" d="M592.3,92.2c-0.3,1.4-0.8,2.5-1.7,3.2c-0.8,0.8-1.8,1.1-2.8,1.1c-1.2,0-2.3-0.5-3.2-1.5
			c-0.9-1-1.3-2.4-1.3-4.1c0-1.7,0.5-3,1.5-4.1c1-1,2.2-1.6,3.6-1.6c1,0,1.9,0.3,2.6,0.8c0.7,0.6,1,1.1,1,1.7c0,0.3-0.1,0.5-0.3,0.7
			c-0.2,0.2-0.5,0.3-0.8,0.3c-0.5,0-0.8-0.1-1-0.4c-0.1-0.2-0.2-0.5-0.3-0.9c0-0.5-0.2-0.8-0.5-1c-0.3-0.2-0.6-0.3-1.1-0.3
			c-0.8,0-1.4,0.3-1.9,0.9c-0.6,0.8-0.9,1.8-0.9,3c0,1.3,0.3,2.4,0.9,3.4c0.6,1,1.5,1.5,2.5,1.5c0.8,0,1.4-0.3,2-0.8
			c0.4-0.4,0.8-1,1.2-1.9L592.3,92.2z"/>
		<path class="st0" d="M597.9,85.3v8.5c0,0.7,0,1.1,0.1,1.3c0.1,0.2,0.2,0.4,0.4,0.5c0.2,0.1,0.5,0.2,1,0.2v0.4h-5.2v-0.4
			c0.5,0,0.9,0,1-0.2c0.2-0.1,0.3-0.3,0.4-0.5c0.1-0.2,0.2-0.7,0.2-1.3v-4.1c0-1.2,0-1.9-0.1-2.2c-0.1-0.2-0.1-0.4-0.3-0.5
			c-0.1-0.1-0.3-0.1-0.5-0.1c-0.2,0-0.5,0.1-0.8,0.2l-0.2-0.4l3.2-1.3H597.9z M597,79.7c0.3,0,0.6,0.1,0.8,0.3
			c0.2,0.2,0.3,0.5,0.3,0.8c0,0.3-0.1,0.6-0.3,0.8c-0.2,0.2-0.5,0.3-0.8,0.3c-0.3,0-0.6-0.1-0.8-0.3c-0.2-0.2-0.3-0.5-0.3-0.8
			c0-0.3,0.1-0.6,0.3-0.8C596.3,79.8,596.6,79.7,597,79.7z"/>
		<path class="st0" d="M603.1,89.6c0,1.6,0.4,2.8,1.1,3.7c0.8,0.9,1.7,1.3,2.7,1.3c0.7,0,1.3-0.2,1.8-0.6c0.5-0.4,0.9-1,1.3-2
			l0.4,0.2c-0.2,1.1-0.6,2-1.4,2.9c-0.8,0.9-1.8,1.3-2.9,1.3c-1.3,0-2.4-0.5-3.3-1.5c-0.9-1-1.4-2.3-1.4-4c0-1.8,0.5-3.2,1.4-4.3
			c0.9-1,2.1-1.5,3.5-1.5c1.2,0,2.2,0.4,2.9,1.2c0.8,0.8,1.1,1.8,1.1,3.1H603.1z M603.1,88.9h4.9c0-0.7-0.1-1.2-0.2-1.4
			c-0.2-0.4-0.5-0.8-0.9-1c-0.4-0.2-0.8-0.4-1.2-0.4c-0.6,0-1.2,0.2-1.7,0.7C603.5,87.3,603.2,88,603.1,88.9z"/>
		<path class="st0" d="M615.4,87.5c1.2-1.5,2.4-2.3,3.6-2.3c0.6,0,1.1,0.1,1.5,0.4c0.4,0.3,0.8,0.8,1,1.4c0.2,0.5,0.3,1.2,0.3,2.1
			v4.5c0,0.7,0.1,1.1,0.2,1.4c0.1,0.2,0.2,0.3,0.4,0.5c0.2,0.1,0.5,0.2,1,0.2v0.4h-5.3v-0.4h0.2c0.5,0,0.8-0.1,1-0.2
			c0.2-0.2,0.3-0.4,0.4-0.7c0-0.1,0-0.5,0-1.1v-4.4c0-1-0.1-1.7-0.4-2.1c-0.3-0.4-0.7-0.7-1.3-0.7c-0.9,0-1.8,0.5-2.7,1.5v5.6
			c0,0.7,0,1.2,0.1,1.3c0.1,0.2,0.3,0.4,0.4,0.5c0.2,0.1,0.6,0.2,1.2,0.2v0.4h-5.3v-0.4h0.2c0.5,0,0.9-0.1,1.1-0.4
			c0.2-0.3,0.3-0.8,0.3-1.6v-3.9c0-1.3,0-2.1-0.1-2.3c-0.1-0.3-0.1-0.5-0.3-0.6c-0.1-0.1-0.3-0.2-0.5-0.2c-0.2,0-0.5,0.1-0.8,0.2
			l-0.2-0.4l3.2-1.3h0.5V87.5z"/>
		<path class="st0" d="M633.7,92.2c-0.3,1.4-0.8,2.5-1.7,3.2c-0.8,0.8-1.8,1.1-2.8,1.1c-1.2,0-2.3-0.5-3.2-1.5
			c-0.9-1-1.3-2.4-1.3-4.1c0-1.7,0.5-3,1.5-4.1c1-1,2.2-1.6,3.6-1.6c1,0,1.9,0.3,2.6,0.8c0.7,0.6,1,1.1,1,1.7c0,0.3-0.1,0.5-0.3,0.7
			c-0.2,0.2-0.5,0.3-0.8,0.3c-0.5,0-0.8-0.1-1-0.4c-0.1-0.2-0.2-0.5-0.3-0.9c0-0.5-0.2-0.8-0.5-1c-0.3-0.2-0.6-0.3-1.1-0.3
			c-0.8,0-1.4,0.3-1.9,0.9c-0.6,0.8-0.9,1.8-0.9,3c0,1.3,0.3,2.4,0.9,3.4c0.6,1,1.5,1.5,2.5,1.5c0.8,0,1.4-0.3,2-0.8
			c0.4-0.4,0.8-1,1.2-1.9L633.7,92.2z"/>
		<path class="st0" d="M637.5,89.6c0,1.6,0.4,2.8,1.1,3.7c0.8,0.9,1.7,1.3,2.7,1.3c0.7,0,1.3-0.2,1.8-0.6c0.5-0.4,0.9-1,1.3-2
			l0.4,0.2c-0.2,1.1-0.6,2-1.4,2.9c-0.8,0.9-1.8,1.3-2.9,1.3c-1.3,0-2.4-0.5-3.3-1.5c-0.9-1-1.4-2.3-1.4-4c0-1.8,0.5-3.2,1.4-4.3
			c0.9-1,2.1-1.5,3.5-1.5c1.2,0,2.2,0.4,2.9,1.2c0.8,0.8,1.1,1.8,1.1,3.1H637.5z M637.5,88.9h4.9c0-0.7-0.1-1.2-0.2-1.4
			c-0.2-0.4-0.5-0.8-0.9-1c-0.4-0.2-0.8-0.4-1.2-0.4c-0.6,0-1.2,0.2-1.7,0.7C637.9,87.3,637.6,88,637.5,88.9z"/>
		<path class="st0" d="M653.6,85.3v3.6h-0.4c-0.3-1.1-0.7-1.9-1.1-2.3c-0.5-0.4-1-0.6-1.8-0.6c-0.5,0-1,0.1-1.3,0.4
			c-0.3,0.3-0.5,0.6-0.5,1c0,0.4,0.1,0.8,0.4,1.1c0.2,0.3,0.7,0.7,1.5,1l1.7,0.8c1.6,0.8,2.4,1.8,2.4,3c0,1-0.4,1.7-1.1,2.3
			c-0.7,0.6-1.5,0.9-2.5,0.9c-0.6,0-1.4-0.1-2.2-0.3c-0.3-0.1-0.5-0.1-0.6-0.1c-0.2,0-0.3,0.1-0.4,0.3h-0.4v-3.8h0.4
			c0.2,1.1,0.6,1.9,1.2,2.4c0.6,0.5,1.3,0.8,2.1,0.8c0.5,0,1-0.2,1.3-0.5c0.3-0.3,0.5-0.7,0.5-1.1c0-0.5-0.2-1-0.6-1.3
			c-0.4-0.4-1.1-0.8-2.2-1.4c-1.1-0.6-1.9-1.1-2.2-1.5c-0.3-0.4-0.5-1-0.5-1.7c0-0.9,0.3-1.6,0.9-2.2c0.6-0.6,1.4-0.9,2.3-0.9
			c0.4,0,0.9,0.1,1.5,0.3c0.4,0.1,0.7,0.2,0.8,0.2c0.1,0,0.2,0,0.3-0.1c0.1-0.1,0.2-0.2,0.2-0.4H653.6z"/>
	</g>
	<g>
		<g>
			<path class="st1" d="M59.6,58.5c-1.3-2-3-3.7-5-5c-6.7-4.8-15-9.1-25-12.8c-3.7,7-7.4,12.3-11.3,16c-1.2,1.5-2.7,2.1-4.5,1.8
				c-1.8-0.7-2.8-1.8-3-3.5c0-0.3,0-0.7,0-1l0.2-0.3c0-0.2,0.1-0.2,0.2-0.2c0.2-0.8,0.3-1.3,0.5-1.3l0.2,0.2c0.2,0.7,0.6,1,1.3,1
				c0.7-0.2,1.3-0.3,1.8-0.5c4.3-2.7,8-7,11-13c-0.7-0.5-1-0.9-1-1.3c0-0.2,0.2-0.2,0.5-0.2c-0.3,0-0.3-0.1,0.2-0.2
				c0.2-0.2,0.4-0.3,0.8-0.3c0.3-0.2,0.6-0.2,0.8-0.2c2.7-6,4.8-12.4,6.5-19.3c0-0.3-0.1-0.6-0.2-0.8c-0.2-0.3-0.4-0.8-0.8-1.3
				c-0.3-0.3-0.6-0.7-0.8-1V15c-0.2-0.2-0.2-0.3,0-0.5c0.2,0,0.5-0.1,1-0.2c0.3,0,0.6,0,0.8,0c1.5,0.2,2.7,1,3.5,2.5
				c0,0.8-0.2,1.6-0.5,2.3c-1.3,5.5-3.4,12-6.3,19.5c12.2,4.3,21.4,8.7,27.8,13c2.8,1.8,4.3,3.8,4.3,6c0,1.5-0.3,2.3-1,2.5
				C61,60,60.3,59.5,59.6,58.5z"/>
			<path class="st1" d="M106.2,28.3c0,0.8-0.8,1.3-2.3,1.3c-4.3,0-7.8,0.1-10.5,0.2c0.7,0.8,1,1.8,1,2.8c0,0.7-0.3,1.9-0.8,3.8
				c-0.2,1-0.2,1.6-0.2,1.8c-0.7,2.5-1.7,4.9-3,7.3c3.3,3.5,6.1,5.8,8.3,7c2.8,1.7,7.3,3.5,13.5,5.5c0.3,0.2,0.6,0.2,0.8,0.2
				c2.2,0.3,3.3,1,3.3,2c0,0.3-0.3,0.5-1,0.5c-6.5,0.2-11.5-0.8-15-2.8c-4-3-7.7-6.4-11-10.3c-2.5,4-4.7,6.8-6.5,8.3
				c-4,3.2-7.9,4.9-11.8,5.3c-3.2-0.3-5.3-0.7-6.3-1v-0.2c4.2-0.8,8.1-2.3,11.8-4.3c4.5-2.3,8.1-5.8,10.8-10.3
				c-1.7-2.2-3.4-4.5-5.3-7L81.7,38c-0.3-0.5-0.8-0.8-1.3-1c-1.3,0-1.9-0.8-1.8-2.3c0-0.8,0.4-1.3,1.3-1.3c1.5,0,3,1.4,4.5,4.3
				c0.5,1,0.9,1.7,1.3,2c0.8,1,1.8,2.1,2.8,3.3c1.8-3.3,3.2-7.3,4-12c0-0.5,0.2-0.9,0.5-1.3c-0.5,0-1.3,0.1-2.3,0.3
				c-1.2,0-2,0.1-2.5,0.2c-1.3,0.2-3.3,0.5-6,1c-2.8,0.5-4.9,0.9-6.3,1.3c-1.8,0.3-3.3,0.2-4.3-0.5c-0.2,0-0.3-0.1-0.5-0.3
				c-0.8-0.3-1.3-0.6-1.5-0.8l-0.2-0.5c0.2-0.2,0.5-0.3,1-0.5c0.3,0,0.6,0,0.8,0c1.7,0.2,3.9,0.1,6.8-0.3c0.8-0.2,2-0.3,3.5-0.5
				c8.7-1.5,15.2-2.4,19.5-2.8C103.9,26.5,105.7,27.1,106.2,28.3z M86.9,23.3l-0.5,0.2h-0.2c-0.5,0-0.8-0.2-0.8-0.8
				c0-0.3,0.2-0.6,0.5-0.8c0.3-0.2,0.5-0.3,0.5-0.5c0-1.3-0.6-2.8-1.8-4.5c-0.2-0.2-0.3-0.3-0.5-0.5c-0.3-0.5-0.5-1-0.5-1.5
				c4,0.3,6.6,2.6,7.8,6.8c0,0.2,0.1,0.5,0.2,1c0.2,0.7,0.3,1.2,0.3,1.5c-0.5,1.5-1.2,2.4-2,2.8c-1.3,0-2.2-0.8-2.5-2.5
				C87.2,23.7,87.1,23.3,86.9,23.3z"/>
			<path class="st1" d="M133.9,65.1c0-0.2-0.1-0.4-0.2-0.8v-0.5c0-2.3,0.2-6.3,0.5-11.8c-0.3,4-0.3,3.8,0-0.8
				c-0.3,0.3-0.9,0.8-1.8,1.3c-1.5,1-2.7,1.8-3.5,2.5c-0.2,0-0.4,0.1-0.8,0.3c-0.3,0.3-0.8,0.5-1.3,0.5c-0.5,0-1-0.1-1.5-0.2h-0.3
				c-1-0.5-1.6-1.3-1.8-2.3c0-0.3,0.2-0.7,0.5-1c0.8-1.2,1.9-2.8,3.3-4.8c3.7-5.3,6.3-9.3,7.8-12c0-0.3,0-0.7,0-1
				c-1.5,0.3-3.9,1.2-7.3,2.5c-1.3,0.5-2.3,0.8-3,1c-2,0.8-4.1,0.7-6.3-0.5c-1.2-0.2-1.8-0.5-1.8-1c0-0.3,0.2-0.5,0.5-0.5
				c1.5,0.2,3.5-0.2,6-1c0.5-0.2,1.2-0.4,2-0.8c4.2-1.7,7.5-2.8,10-3.5c0-0.8,0.1-2.2,0.2-4c0-2.3,0.1-3.8,0.3-4.3
				c-3.5,0.5-7.3,1.2-11.5,2c-0.2,0.2-0.5,0.3-1,0.5c-0.2,0-0.2-0.1-0.2-0.3c0.2-0.5,0.5-0.8,1-1c2.7-2.5,6.9-4.8,12.8-7
				c0.7-0.2,1.2-0.3,1.5-0.5c0.7-0.3,1-0.6,1-0.8c0.2-0.7,0.3-1.3,0.3-2c0-0.3,0-0.8,0-1.5c0-0.2-0.1-0.3-0.3-0.5
				c0-0.2,0.1-0.2,0.3-0.2c0.2,0.3,0.4,0.5,0.8,0.5c-0.2,0-0.1,0.1,0.2,0.2c1.3,1.5,2.3,3.3,3,5.3c0.2,2-1.5,3.6-5,4.8
				c0.3,1.5,0.4,3,0.2,4.5c0,1.2,0,2.2,0,3c1.7-0.3,3.3-0.5,4.8-0.5c0.8,0,1.6,0.1,2.3,0.2h0.2h0.2h0.2v0.3c0,0.3-0.1,0.5-0.2,0.5
				v0.2c0,0.2,0,0.3,0,0.5c0,0.2,0,0.3,0,0.5v0.2v0.2c0,0.2-0.1,0.3-0.2,0.3l-0.2,0.2h-0.3c0,0.2-0.1,0.3-0.2,0.5
				c-0.2,0-0.5,0.1-1,0.2c-0.3,0-0.7,0.1-1,0.3c-0.7,0-1.8,0.2-3.3,0.5c1-0.3,0.8-0.3-0.8,0l-0.2,0.5c-0.2,0.2-0.3,0.3-0.5,0.5
				c0,1.2-0.1,2.8-0.2,4.8c0,2,0,3.5,0,4.5c1.7-1,3.8-2.4,6.5-4.3c1-0.7,1.2-0.5,0.5,0.5c-1,1.8-3.3,4.5-7,8
				c-0.3,5.5-0.5,10.8-0.5,15.8c0,0.3-0.1,0.7-0.2,1c-0.2,0.3-0.2,0.6-0.2,0.8v0.3c0.2,0.2,0.2,0.3,0.2,0.5c-0.3,0.3-0.7,0.6-1,0.8
				c-0.5,0-1-0.4-1.5-1.3c-0.2,0-0.4-0.3-0.8-0.8v-0.3H133.9z M134.4,44c-0.2,0.3-0.4,0.8-0.8,1.5c-0.5,0.8-0.8,1.4-1,1.8
				c0.2-0.2,0.5-0.3,1-0.5c0.3-0.3,0.6-0.5,0.8-0.5C134.4,45.6,134.4,44.9,134.4,44z M136.4,67.1v-0.2V67.1z M160.9,49.8
				c-1.8-0.2-3.1-1.3-3.8-3.3c-0.8,0-1.8,0-3,0c0,0.2,0,0.3,0,0.5c-0.2,0.8-0.5,1.4-1,1.8c-1,0.7-2.2,0.5-3.5-0.5
				c-1.2-2.3-2.1-4.8-2.8-7.5c-0.7-2.8-0.6-5.3,0.2-7.5c0-0.5,0.2-1,0.8-1.5c0.3,0,0.6-0.1,0.8-0.2h0.2c0,0.3,0.1,0.8,0.2,1.3
				c0.3,0.3,0.5,0.7,0.5,1c0.3,0.5,0.6,1.2,0.8,2c0.8,3.2,1.8,6,2.8,8.5c3.3-1,5.9-1.1,7.8-0.2c1.3-2.5,2.3-5.2,3-8
				c0.3-1.2,0.2-2-0.5-2.5c-1.2-0.8-3.4-0.8-6.8,0c-0.3,0-0.8,0.1-1.5,0.3c-0.7,0.2-1.2,0.2-1.5,0.2c-0.5,0-1.3-0.1-2.3-0.2
				c-0.5,0-0.8,0-1,0l-0.2-0.3c0-0.3,0.4-0.6,1.3-0.8c3.8-1.2,7.6-2,11.3-2.5c0.5,0,1-0.1,1.5-0.2c0.2,0,0.3,0.1,0.5,0.2
				c1.3,0.3,2.3,0.8,3,1.3c0.8,0.3,1.3,0.8,1.5,1.5c0.3,0.7,0.2,1.7-0.2,3c-0.8,4-2.3,8.1-4.5,12.3C163.8,49.5,162.6,50,160.9,49.8z
				"/>
			<path class="st1" d="M186.5,68.6c-1-0.2-1.7-1-2-2.5c0-2.2,0.2-5.3,0.8-9.5c0.3-3.5,0.5-6.1,0.5-7.8c-1.5,1.5-3.8,3.4-7,5.8
				c-1,0.8-1.8,1.4-2.3,1.8c-0.3,0.2-1.3,0.3-3,0.3c-0.2,0-0.4,0-0.8,0l-1.3-1.3c-0.2-0.5-0.2-1.2-0.2-2V53c0.2-0.2,0.5-0.7,1-1.5
				c0.2-0.3,0.3-0.6,0.5-0.8c2.7-3.3,5-6.7,7-10c0.5-0.8,1.2-1.9,2-3.3c1.2-1.8,2.1-3.3,2.8-4.5c-3.5,1.5-5.8,2.3-6.8,2.3
				c-1.5-0.2-2.8-0.8-4-2c-0.3-0.3-0.7-1-1-2c-0.2-0.2-0.2-0.3-0.2-0.5c0.2-0.3,0.3-0.4,0.5-0.3c0-0.2,0-0.3,0-0.5l0.2-0.3
				c0.5,0,1.2,0.1,2,0.3c0.8,0.2,1.4,0.2,1.8,0.2h0.2c3.5-0.7,6.7-1.6,9.5-2.8c1.5-0.7,2.9-1,4.3-1c0.8,0.2,1.3,1,1.5,2.5
				c0.2,0.3,0,0.7-0.5,1c0,0.7-0.2,1.7-0.5,3c-0.3,2.7-0.6,4.9-0.8,6.8c1-0.8,1.9-1.8,2.8-2.8c-0.2-0.2-0.3-0.3-0.5-0.5
				c0-0.2,0.3-0.7,1-1.5l0.5,0.5c0.3,0,0.6-0.1,0.8-0.2c2.5,0,5.6-0.3,9.3-1c0-1,0-2.6,0-4.8c-0.2-3.7-0.2-6.5,0-8.5
				c-0.7-1.5-1-2.6-1-3.3c0.3-0.3,0.8-0.6,1.5-0.8c1.7,0.2,2.6,1.7,2.8,4.5v0.8c-0.3,0.8-0.5,1.3-0.5,1.5c0,3.2,0,6.5,0,10
				c1.2-0.2,2.8-0.5,5-1c1.2-0.2,2-0.3,2.5-0.5c1.2-0.2,1.5,0.5,1,2c-0.3,0.3-1,0.7-2,1c-0.3,0.2-0.7,0.2-1,0.2
				c-2.2,0.2-4,0.5-5.5,1c0,4.2-0.2,8.2-0.5,12c1.8-0.2,4.7-0.2,8.5-0.2c2,0.2,3.4,0.6,4.3,1.3c1.5,1.7,1.4,2.7-0.2,3
				c-0.7,0-1.7-0.2-3-0.5c-0.8-0.3-1.5-0.5-2-0.5c-2-0.3-5.1-0.3-9.3,0c-1.2,0.2-2,0.2-2.5,0.2c-0.8,0-2,0.2-3.5,0.5
				c-2,0.3-3.5,0.5-4.5,0.5c-0.5,0-1.1-0.1-1.8-0.3c-0.7-0.5-1.3-1.3-2-2.3c0.2,0,0.4,0,0.8,0c2.5-0.2,5.8-0.6,10-1.3
				c2.2-1,3.2-5,3-12c-0.5,0-1.2,0.1-2,0.2c-1.7,0.3-3.3,0.6-5,0.8c-1.3,0-2.5-0.2-3.5-0.5c0,0.2-0.1,0.4-0.2,0.8
				c-0.2,0.3-0.2,0.6-0.2,0.8c-0.3,0.3-0.5,0.8-0.5,1.3c0.3-0.3,0.6-0.5,0.8-0.5c-0.3,0.5-0.8,1.2-1.3,2c-0.7,0.7-1.4,1.5-2.3,2.5
				c-0.5,6.5-0.8,13-1,19.5c0,0.2,0,0.5,0,1C189.2,67.8,188.3,69.1,186.5,68.6z M185.5,20.5c0-0.2,0.1-0.4,0.3-0.8
				c0.2-0.2,0.2-0.3,0.2-0.5c0-0.3-0.1-0.8-0.2-1.5c0.2,0.3,0.1,0.2-0.3-0.5c-0.3-0.2-0.6-0.4-0.8-0.8c-0.2-0.2-0.3-0.3-0.5-0.5
				l-0.5-0.5c-1.3-1-2-2.1-2-3.3v-0.5c0.5-0.5,1.3-0.8,2.3-0.8c0.3,0,0.6,0,0.8,0c2.2-0.2,4.5,0.3,7,1.5c1.5,1.2,2.3,2.8,2.5,4.8
				c-0.2,1.8-1.4,2.8-3.8,3h-0.2c-0.8-0.2-1.3-0.2-1.5-0.2c-0.3-0.2-0.8,0-1.3,0.5c-0.5,0.3-0.9,0.5-1.3,0.5
				C185.7,21,185.5,20.9,185.5,20.5z M186.5,42c0-0.3,0-0.9,0-1.8c0.2-1,0.2-1.8,0.2-2.5c-0.2,0.2-0.3,0.5-0.5,1
				c-1.5,2.5-2.6,4.3-3.3,5.3c0.3-0.2,0.9-0.5,1.8-1C185.5,42.5,186.1,42.2,186.5,42z"/>
			<path class="st1" d="M222.2,47.8c0.3-0.2,0.6-0.3,0.8-0.5c0.3-0.2,0.8-0.4,1.5-0.8c2-1.2,3.8-2.3,5.3-3.3
				c8.3-6.2,14.4-15.8,18.3-28.8c0.2-1,0.1-2-0.2-3c-0.2-0.3-0.2-0.6-0.2-0.8c0-0.3,0.2-0.5,0.5-0.5h0.5c2.2,0.3,3.4,1.3,3.8,2.8
				c0,0.2-0.2,0.5-0.5,1c-0.3,0.2-0.5,0.3-0.5,0.5c-0.3,1-1,2.8-2,5.5c-0.3,1.2-0.6,1.9-0.8,2.3c2.7,1.5,4.8,3.1,6.3,4.8
				c5.5,5.2,10.3,8.8,14.3,10.8c0.7,0.3,2.1,0.8,4.3,1.5c2.8,1,5,1.8,6.5,2.5c0.8,0.3,1.3,0.8,1.5,1.5c0,0.5-0.3,0.9-1,1.3h-1.5
				c-5.2-0.3-9.4-1.6-12.8-3.8c-4.8-4.5-8.9-8.5-12.3-12c-2.5-2.8-4.5-4.5-6-5c-6.5,13.7-13.2,21.7-20,24c-0.2,0.2-0.4,0.3-0.8,0.5
				h-0.2c-0.2-0.2-0.3-0.3-0.5-0.3c-0.3,0.2-0.6,0.3-0.8,0.3h-1c-0.8-0.2-1.3-0.3-1.5-0.3C222.5,48,222.2,48,222.2,47.8z
				 M254.5,56.8c-3.5,1.7-8.3,3.3-14.5,5c-0.2,0-0.4,0.1-0.8,0.2c-0.3,0.2-0.6,0.3-0.8,0.3c-1.2,0-2-0.5-2.5-1.5
				c-0.3-0.3-0.6-0.6-0.8-0.8c0-0.2,0.1-0.4,0.2-0.8V59c0.3-1,1.2-1.8,2.5-2.5c0.3-0.2,0.6-0.3,0.8-0.5c4-3,6.3-6,7-9
				c-0.7,0.2-1.5,0.4-2.5,0.8c-2,0.5-3.3,0.8-4,0.8c-3.2-0.2-4.8-0.8-5-1.8c0-0.2,0.1-0.2,0.3-0.2c0.7-0.3,1.5-0.5,2.5-0.5
				c2.5-0.2,5.8-0.6,9.8-1.3c4-0.8,7.3-1.3,9.8-1.5c1.2,0,2.2,0.2,3,0.8v0.2c-0.3,0.3-0.6,0.5-0.8,0.5c-0.5,0.5-2,0.8-4.5,0.8
				c-2.5,0.2-4.3,0.4-5.5,0.8c0,0.2,0.1,0.5,0.2,1c0.3,0.8,0.5,1.5,0.5,2c0,0.8-1.1,2.4-3.3,4.8c-1.2,1.3-2.2,2.5-3,3.5
				c0.3,0.2,0.8,0.3,1.3,0.3c3.8-0.7,7.1-1.5,9.8-2.5c-0.3-1.5-0.8-2.9-1.3-4.3c-0.3-0.7-0.5-1.3-0.5-1.8c1.7,0.2,3,1,4,2.5
				c1.7,3.2,2.6,6.2,2.8,9c0,0.7-0.2,1.3-0.5,2c-0.2,0-0.4,0.1-0.8,0.2c-0.3,0.2-0.5,0.3-0.5,0.5c-0.2-0.3-0.5-0.6-1-0.8
				c-0.7-0.3-1.1-0.8-1.3-1.3c0-0.5-0.1-1.3-0.2-2.3C254.8,58.1,254.7,57.3,254.5,56.8z M248.5,38.5c-0.5,0-1.3-0.1-2.5-0.2
				c-1.2,0-2-0.1-2.5-0.3l-0.5-0.2c-0.5-0.3-0.8-0.6-0.8-0.8c0.8-0.5,1.9-0.8,3.3-0.8c1.8,0,3.3-0.1,4.5-0.3c2.2,0,3.5,0.5,4,1.5
				c-0.2,0.8-1.6,1.3-4.3,1.3c-0.5,0.3-1,0.5-1.5,0.5h-0.5L248.5,38.5z"/>
			<path class="st1" d="M293.8,59.5V57c0.3-2.3,0.7-6,1-11c0-0.8,0-1.4,0-1.8c-0.8,0.5-1.9,1.4-3.3,2.8c-1.5,1.3-2.7,2.3-3.5,3
				c-0.2,0.2-0.4,0.3-0.8,0.5c-0.7,0.3-1.2,0.7-1.5,1h-1.3c-0.2,0-0.3-0.1-0.5-0.3c-0.5-0.2-0.8-0.3-1-0.5c0-0.2,0-0.4,0-0.8
				l-0.3-0.5v-0.3c0.3-1,1.1-2,2.3-3c1-1.5,2.6-3.8,4.8-6.8c2.5-3.2,4.3-5.5,5.3-7c-1.7,0.3-3.9,1.2-6.8,2.5c-0.5,0.2-1.3,0.5-2.3,1
				c-1.7,1-2.9,1.5-3.8,1.5h-0.5c-0.8,0-1.7,0-2.5,0c-0.5-0.2-1.2-0.5-2-1c-0.3-0.3-0.7-0.6-1-0.8c0.2-0.2,0.3-0.3,0.5-0.3
				c0.3-0.2,0.6-0.2,0.8-0.2c2.5-1.2,5.2-2,8-2.5c4.2-1.3,7.7-2.6,10.5-3.8c0-0.5,0-1.2,0-2c0.2-2.5,0.6-3.7,1.3-3.5
				c0.3,0,0.6,0,0.8,0v1.3c0.2,0.7,0.3,1.1,0.3,1.3c0.5,1,0.7,1.8,0.5,2.3c0.3,0,0.8-0.1,1.5-0.3c0.5,0,0.8,0,1,0
				c1.3,0.5,2.1,1.1,2.3,1.8l-1.8,0.5c-1.5,0.5-2.4,0.8-2.8,1c0,0.7-0.1,1.8-0.2,3.3c0,1.5-0.1,2.5-0.2,3c0.3-0.2,0.8-0.3,1.3-0.5
				c0.8-0.3,1.5-0.5,2-0.5c0,0.2-0.2,0.5-0.8,1c-0.5,0.5-0.9,0.9-1.3,1.3c-0.2,0.5-0.7,1.1-1.5,1.8c-0.3,2.3-0.6,6.9-0.8,13.8
				c-0.2,1.7-0.2,2.8-0.2,3.5c0,1.2-0.1,2.1-0.2,2.8h-0.3v0.2c-0.2,0-0.3,0.1-0.5,0.3c-0.2,0-0.3,0-0.5,0
				C295.1,60.9,294.4,60.4,293.8,59.5z M284.5,27.5c0.5-0.7,1.3-1.4,2.5-2.3c0.5-0.3,0.8-0.6,1-0.8c1.5-1,3.3-2.3,5.3-4
				c-0.2,0.2,0.1,0,0.8-0.5c0.3-0.3,1-0.8,2-1.3c1.2-0.7,1.9-1.3,2.3-1.8c0.2-0.2,0.2-0.4,0.2-0.8c0-0.5,0.3-0.8,1-0.8
				c1.8,0.5,2.9,1.7,3.3,3.5c0,0.5-0.3,1-1,1.5c-0.2,0.7-0.4,1-0.8,1c-0.7,0.5-1.7,0.9-3,1.3c-1,0.2-1.8,0.4-2.5,0.8
				c-2.8,1-5.7,1.9-8.5,2.8c-1,0.5-1.7,0.9-2,1.3H284.5z M294,40.3c0.2-0.2,0.3-0.3,0.5-0.3l0.5-0.2c0.2-0.7,0.2-1.2,0.2-1.5
				C294.6,39.3,294.2,40,294,40.3z M315.8,68.6c0-0.2-0.1-0.6-0.3-1.3v-0.8c0-0.2-0.1-0.5-0.2-1c-0.3-0.5-0.5-0.9-0.5-1.3
				c0-6,0.2-14.9,0.5-26.8c-1.7,0-4.2,0.7-7.5,2l-0.2,0.2c-0.7,0.3-1.3,0.5-1.8,0.5c-0.7,0.3-1.9,0.5-3.8,0.5h-1.3
				c-0.7-0.2-1-0.4-1-0.8c0.3-0.3,0.6-0.6,0.8-0.8h1c1.3-0.3,3-0.9,5-1.8c3-1.2,5.9-2,8.8-2.5c0.2-2.3,0.2-5.8,0.2-10.3
				c0-4.7,0-8.1,0-10.3c0-0.2,0-0.5,0-1c-0.2-0.7-0.2-1.2-0.2-1.5c0.2-0.8,0.4-1.3,0.8-1.5h1.3c0,0.2,0.1,0.3,0.2,0.5
				c0.2,0,0.3,0.1,0.5,0.3v0.2c0,0.3,0,0.6,0,0.8c0.5,1.8,0.8,4.8,0.8,9c0,2.2-0.1,5.3-0.2,9.5c-0.2,1.5-0.2,2.7-0.2,3.5
				c2-0.3,3.7-0.5,5-0.5c0-0.2-0.2-0.5-0.5-1c0-0.5,0.2-0.8,0.5-0.8c1.3,1,3,1.5,5,1.5c0,0.2,0.1,0.5,0.3,1c0,0.3,0,0.7,0,1V36
				l-0.3,0.3c-0.2,0-0.2,0.1-0.2,0.2h-0.8c-0.3,0-0.8-0.1-1.5-0.2c-0.7-0.2-1.2-0.3-1.5-0.3c-1,0-2.4,0.1-4.3,0.3
				c-0.7,0.2-1.3,0.2-1.8,0.2c0,10,0,19.3,0,27.8c0,0.2-0.1,0.4-0.3,0.8c-0.2,0.3-0.2,0.6-0.2,0.8l0.2,0.3c-0.5,1.3-1.1,2.2-1.8,2.5
				C316.1,68.6,315.9,68.6,315.8,68.6z M304,29.8c0-0.3,1.1-1.1,3.3-2.3c2.2-1.2,3.3-1.9,3.3-2.3c-1.2-1-2.6-2-4.3-3
				c-0.2,0-0.3-0.1-0.5-0.2c-0.3,0-0.5-0.2-0.5-0.5c0-0.3,0.4-0.5,1.3-0.5c4.3,1.2,6.8,2.8,7.5,5c0,0.8-0.2,1.3-0.8,1.3V27l-1-0.3
				c-0.5-0.2-0.8-0.2-1-0.2c-0.2,0-0.3,0-0.5,0c-2.7,0.8-4.3,1.8-5,2.8c0,0.2,0.7,0.4,2,0.8c1,0,2.2,0.3,3.5,1l0.2,0.3
				c0.7,0.5,1.1,1.2,1.3,2c-0.3,0.5-0.6,0.8-0.8,0.8c-0.2-0.2-0.4-0.2-0.8-0.2c-0.2,0-0.4-0.1-0.8-0.3c-0.2-0.2-0.4-0.3-0.8-0.5
				c-0.5-0.3-0.8-0.5-1-0.5c-0.2,0-0.6-0.1-1.3-0.3C305.2,32,304,31.1,304,29.8z"/>
			<path class="st1" d="M348.1,62.8c-0.7-1-0.6-1.1,0.3-0.3c-0.2,0-0.2,0,0,0c2.2,1.8,4.3,2.8,6.3,2.8c1.3,0,2.3-0.5,3-1.5
				c2-3,2.7-7.4,2-13.3c-5.2,1-9,2.1-11.5,3.3c-0.3,0.2-0.8,0.6-1.3,1.3c-0.3,0.5-0.6,0.8-0.8,0.8c0-0.3,0.1-0.7,0.2-1
				c0.2-0.2,0.2-0.3,0.2-0.5c0-0.2-0.1-0.2-0.2-0.2c-0.2,0-0.5,0.2-1,0.5c0,0.2-0.1,0.3-0.2,0.5v-0.2c-0.2-0.3-0.2-0.7,0-1
				c0-0.2,0.2-0.5,0.5-1c0.2-0.2,0.3-0.3,0.3-0.5c1.7-1.2,6.1-2.8,13.3-4.8c0-1.7-0.5-3.1-1.5-4.3c-0.3-0.5-0.8-0.8-1.5-1
				c-0.2-0.2-0.4,0-0.8,0.5c-0.2-0.2-0.4-0.3-0.8-0.3c-0.7-0.5-1-0.9-1-1.3v-0.5c0.3-0.2,0.8-0.3,1.5-0.3c0.8,0,1.3,0,1.5,0
				c2.2-1.3,4.1-3.5,5.8-6.5c-1.2,0.5-3.1,1.2-5.8,2c-0.5,0.2-0.9,0.3-1.3,0.5c-1,0.3-2.3,0.9-3.8,1.8c-2,0.8-3.2,0.5-3.5-1
				c0.2-1.8,1-2.8,2.5-3c0.7,0.3,1.5,0.4,2.5,0.3c1.2-0.2,2.9-0.6,5.3-1.3c1.8-0.5,3.3-0.8,4.3-1c0.7-0.3,1.3-0.5,1.8-0.5
				c1.3,0,2.1,0.6,2.3,1.8c2.5-1.2,4.9-2.8,7.3-5h-0.2c-0.3-0.7-2.7-1.1-7-1.3c-10.2,0.8-18.1,2.9-23.8,6.3c-0.3,0.5-0.8,1.5-1.5,3
				c-0.2,0.5-0.3,0.8-0.5,1c-1.8,2.8-3.4,3.1-4.8,0.8c-0.2-1.5,0.5-3.4,2-5.8c0.2-0.3,0.4-0.8,0.8-1.3c0.7-1.2,1.2-2,1.5-2.5
				c0.2-0.2,0.5-0.5,1-1c0.8-0.8,1.3-1.5,1.5-2c0.2,0,0.3,0.1,0.5,0.2c0.5,0.2,0.6,0.6,0.2,1.3c0,0.3,0.1,0.9,0.2,1.8
				c0.2,0.8,0.2,1.3,0.2,1.5c1.7-0.8,4.2-1.8,7.5-2.8c5-4,9.6-8.4,13.8-13.3c0.2-0.2,0.3-0.4,0.5-0.8c1.2-1.3,1.8-2.3,1.8-2.8
				c-0.5-1-1.3-1.4-2.5-1.3c-0.3,0-0.8,0-1.3,0h-0.2V9.5c1.2-0.5,2.3-0.8,3.5-0.8c2.8,0.5,4.6,1.6,5.3,3.3c0,0.8-0.2,1.5-0.8,2
				c0,0.2-0.1,0.3-0.2,0.5c-4.3,4.7-9.2,8.8-14.5,12.3c7.8-1.8,13.7-2.3,17.5-1.3c3.2,1.2,5.3,2.7,6.5,4.5c-0.2,1-1.1,1.9-2.8,2.8
				c-1.7,1-4.3,1.4-7.8,1.3c0-0.2-0.1-0.3-0.2-0.5h-0.8c-0.2-0.2-0.3-0.2-0.5-0.2c-1,0.2-1.8,0.5-2.5,1c-0.5,1.3-2.1,3.3-4.8,5.8
				c-1.2,0.7-2.3,1-3.3,1c1.8,1.5,2.9,3.5,3.3,6c0.7-0.2,1.7-0.3,3-0.3c1-0.2,1.7-0.2,2-0.2c2.7,0.5,4.1,1.1,4.3,1.8
				c-0.2,1.2-1.3,1.8-3.3,2c-0.3,0-0.8-0.1-1.5-0.3c-1.5-0.2-2.8-0.2-4,0c0.8,5,0.7,9.6-0.5,13.8c-0.8,2.8-2.8,4.6-5.8,5.3
				c-1,0-2.1-0.4-3.3-1.3C350.7,66,349.2,64.3,348.1,62.8z M350.6,24c-0.2,0-0.3,0-0.5,0c-0.7-0.2-1-0.3-1-0.5
				c-0.2-0.3-0.8-1.8-2-4.5c-1.5-2-2.3-3.7-2.5-5c0.3,0,0.6,0,0.8,0h0.2c2.3-0.5,4.5,0.3,6.5,2.5c0.7,0.8,1.2,2.2,1.5,4
				c0,0.3,0,0.8,0,1.3c0.3,1.5-0.2,2.5-1.5,3c-0.3,0-0.7-0.2-1-0.5C350.9,24.1,350.7,24,350.6,24z M354.1,11.3
				c0.2-0.7,0.8-1.1,1.8-1.3c0.7,0.2,1.4,0.7,2.3,1.5c0.7,0.5,1.2,0.9,1.5,1.3c0.5,0.8,0.8,2.3,1,4.3c-0.7,2.2-2,2.6-4,1.3
				c-0.2-0.2-0.3-0.5-0.5-1c-0.2-0.7-0.6-1.8-1.3-3.3C354.3,13.5,354.1,12.6,354.1,11.3z"/>
			<path class="st1" d="M393.1,21.3c0-0.8,0.8-1.3,2.3-1.3h0.2c3.7,0.5,8.8,0.2,15.3-0.8c-0.5,0-0.9-0.3-1.3-1V18
				c-0.2-0.3-0.3-0.9-0.5-1.8c-0.5-1.2-0.8-1.9-1-2.3c-0.3-0.5-0.8-1.2-1.5-2c-0.8-1.3-1.5-2.4-2-3.3c0-0.2,0.1-0.3,0.2-0.5V7.8
				c0.5,0.3,1.2,0.6,2,0.8c0.2,0,0.5,0.1,1,0.3c2.5,0.5,4.2,1.3,5,2.3l0.2,0.8c0.2,0.5,0.3,0.8,0.5,0.8c0.2,0.5,0.3,1.3,0.5,2.3
				c0,2-0.6,3.5-1.8,4.5c1.5,0,3.8-0.2,6.8-0.5c3.5-0.3,5.9-0.5,7.3-0.5c3.3,0.2,5.1,0.7,5.3,1.5c0,0.8-0.4,1.2-1.3,1
				c-0.2,0-0.2,0.1-0.2,0.2c-0.7,0.2-1.3,0.3-2,0.3c-0.8,0-1.8,0-2.8,0c-6.3-0.5-14.6,0-24.8,1.5c-0.3,0-0.8,0.1-1.3,0.2
				c-1.8,0.3-3.2,0.5-4,0.5h-0.2C393.7,22.9,393.1,22.1,393.1,21.3z M417.3,61c0.3,0.2,0.8,0.5,1.3,1c0.8,0.7,1.6,1,2.3,1h0.2
				c1.3-0.5,2.3-1.3,3-2.5c3-5.8,4.6-11.2,4.8-16c0-0.8-0.6-1.3-1.8-1.5c-0.7,0-1.5,0-2.5,0c-6.8,0-13.2,0.6-19,1.8
				c-0.3,0-0.8,0.1-1.5,0.2c-1.3,0.3-2.3,0.5-2.8,0.5c-0.8,0-1.9-0.1-3.3-0.2c0.2,1,0.5,2.7,1,5c0.8,3.7,1.3,6.4,1.5,8.3
				c0.5,1.2,0.8,2.2,0.8,3c-0.2,0.7-0.5,1.2-1,1.5c-0.7-0.2-1.4-0.5-2.3-1c-0.2-0.7-0.3-1.2-0.5-1.5c-1-4.2-1.8-8.9-2.5-14.3
				c0-0.5,0.2-1,0.5-1.5c0.5-0.7,0.7-1.2,0.5-1.5h0.2c0.3,0,0.7,0.2,1,0.5c0.2,0.3,0.4,0.5,0.8,0.5c11-2.5,20.7-3.8,29-3.8
				c1.5,0,3.1,0.6,4.8,1.8c0.2,0.2,0.4,0.3,0.8,0.5c0.7,0.3,1,0.8,1,1.5c0,0.7-0.3,1.5-0.8,2.5c-0.3,0.7-0.6,1.2-0.8,1.5
				c-1.2,5.8-2.8,10.8-5,15c-1.3,2.7-2.8,4-4.3,4c-1,0-2-0.5-3-1.5C418.5,64.1,417.7,62.5,417.3,61z M407.6,38.8
				c-2.2-2.2-3.3-5.2-3.5-9c0-0.2,0.1-0.8,0.2-1.8c0-0.8,0-1.3,0-1.5c0.2-0.5,0.4-0.8,0.8-1c0.2,0,0.2,0.1,0.2,0.3
				c0.3,0,0.7,0.2,1,0.8c0.5,0.3,0.9,0.5,1.3,0.5h0.2c0.8-0.2,2-0.4,3.5-0.8c2.7-0.7,4.8-1,6.3-1c1.7,0.2,2.6,1.3,2.8,3.5
				c-0.8,1.3-1.4,2.1-1.8,2.3c-0.2,0.5-0.4,1.2-0.8,2c-0.3,0.8-0.7,1.5-1,2c-0.2,0.2-0.4,0.3-0.8,0.5c-0.2,0.2-0.3,0.7-0.5,1.5
				c-0.2,0.2-0.9,0.2-2.3,0.2c-1.2,0.2-1.9,0.2-2.3,0.2h-1.5l-0.3,0.8c0,0.3-0.1,0.6-0.2,0.8c-0.2,0-0.4-0.1-0.8-0.3
				C408,38.8,407.8,38.8,407.6,38.8z M404.1,48.3V48h0.8c0.2,0,0.5,0.1,1,0.3c0.5,0.2,0.9,0.2,1.3,0.2c0.5,0,1.4-0.2,2.8-0.5
				c0.3-0.2,0.6-0.2,0.8-0.2c2.7-0.7,4.9-1,6.8-1c1.2,0,1.8,0.1,2,0.3c0.3,0,0.6,0.7,0.8,2c0,0.3-0.2,0.8-0.8,1.3
				c0,0.2-0.2,0.7-0.8,1.5c-0.3,0.3-0.5,0.6-0.5,0.8c-0.2,0.3-0.5,0.9-1,1.8c-0.7,1-1,1.7-1,2c-1,0.3-2.6,0.5-4.8,0.5
				c-0.5,0-0.9,0-1.3,0c-0.2,0.2-0.5,0.2-1,0.2c-0.2,0-0.4,0-0.8,0c-2-1-3.3-3.4-4-7.3c0-0.2,0-0.4,0-0.8
				C404.2,48.7,404.1,48.5,404.1,48.3z M407.6,29.5c0.3,3.3,0.8,5.3,1.5,5.8h0.5c1.8,0,3.1-0.1,3.8-0.2c1.2-3,2-5.4,2.5-7.3h-0.3
				c-1,0-2.8,0.3-5.5,1c-0.7,0.3-1.2,0.5-1.5,0.5C408.3,29.3,407.9,29.4,407.6,29.5z M410.6,49.3c-1.2,0.3-2.2,0.4-3,0.3
				c1,2.5,1.8,4.2,2.3,5c0.5-0.2,1.2-0.2,2-0.2c1-0.2,1.7-0.2,2-0.2c0.5-0.8,1.1-2.2,1.8-4c0.2-0.5,0.3-0.8,0.3-1l-0.3-0.3h-0.5
				c-0.2,0-0.8,0.1-2,0.3h-1.3C411.5,49,411.1,49.1,410.6,49.3z"/>
			<path class="st1" d="M459.1,50.5c-0.2,0.2-0.1,0.3,0.2,0.5c1.8,1,2.8,2.6,3,4.8c0,1.5-0.6,2.3-1.8,2.5c-0.3,0-0.7-0.1-1-0.2
				c-0.2-0.2-0.3-0.2-0.5-0.2c-0.3-0.5-0.6-1.7-0.8-3.5c-0.3-1.7-0.7-2.8-1-3.3c-1.2-0.3-2.2-0.8-3-1.5v-0.3c0-0.2-0.1-0.3-0.2-0.5
				c-0.2-0.2-0.2-0.3-0.2-0.5c0-0.3,0.8-0.5,2.5-0.5c0.2,0,0.5,0,1,0c1.3,0.2,2.2,0.2,2.5,0c3-0.3,6.2-0.8,9.5-1.3v-6.3
				c-0.2,0-0.4,0-0.8,0c-1,0-1.7,0.2-2,0.5c-0.2,0-0.4,0.1-0.8,0.2c-0.5,0.3-0.9,0.5-1.3,0.5c-0.2,0-0.4-0.1-0.8-0.3
				c-0.3-0.2-0.7-0.2-1-0.2c-2.5,0.2-6.6,0.8-12.3,1.8c-0.3,0-0.8,0.2-1.5,0.5c-1,0.3-1.8,0.5-2.3,0.5c-2.3-0.7-3.7-1.6-4-2.8
				c0.2,0,0.5-0.1,1-0.2c0.8-0.2,1.5-0.3,2-0.3c2.8,0.2,7.5-0.2,14-1.3c3.2-0.5,4.6-1.6,4.3-3.3v-1v-0.5c-1.3,0.7-2.8,1-4.3,1h-0.2
				c-2.3-0.5-4.1-1.7-5.3-3.5c0.5-0.2,1.5-0.3,3-0.3c0.8,0,1.9-0.1,3.3-0.2c1.8,0,3.1-0.1,3.8-0.2c-0.2-1-0.2-2.5,0-4.5
				c0-0.8,0-1.4,0-1.8c0-0.8,0.6-1.3,1.8-1.3c0.2-0.3,0.2-0.6,0.2-0.8c0.3,0,0.6,0,0.8,0c0.5-1,1-1.8,1.5-2.3c3.3-4.7,5-7.8,5-9.5
				c0-0.5-0.1-0.8-0.2-0.8c-0.7,0-1.4,0.5-2.3,1.5c-0.2,0.2-0.3,0.3-0.5,0.5c-0.2,0.2-0.5,0.4-1,0.8c-0.7,0.3-1.3,0.8-1.8,1.3h-0.2
				c2.8-3.3,5.4-5.5,7.8-6.5c1.7,0,2.5,0.8,2.5,2.5c0,0.8-0.8,2.6-2.3,5.3l-0.2,0.2v0.3c0.5-0.2,1.2-0.3,2-0.5
				c0.5-0.3,0.9-0.5,1.3-0.5c1-0.5,2-0.8,3-0.8c0.8,0.5,1.3,1,1.5,1.5c0,1-1.2,1.5-3.5,1.5c-0.2,0-0.8,0.2-2,0.5
				c-1.2,0.3-1.9,0.6-2.3,0.8c-0.2,0-0.3,0.1-0.5,0.2c-0.5,0.2-0.8,0.3-1,0.5c2.7,1.2,4.2,3,4.5,5.5c0,0.5-0.2,0.8-0.5,1h-2
				c-0.2,0-0.4-0.3-0.8-1c-0.2-0.7-0.3-1.1-0.5-1.3c-0.3-0.3-0.8-0.8-1.3-1.3c-0.5-0.5-0.9-0.8-1.3-0.8h-0.3
				c-0.2,0.2-0.4,0.4-0.8,0.8c-1.2,1.7-2.3,2.5-3.5,2.5c0.2,1.5,0.2,2.8,0.2,4c0,0.3,0.8,0.4,2.3,0.2c0.5-0.2,1.1,0,1.8,0.5
				c0.7,0.2,1,0.6,1,1.3c0,0.8-0.9,1.3-2.8,1.5c-1.2,0-2,0.2-2.5,0.5c0,1.7,0,3.3,0,5c2.3-0.3,6.3-0.7,11.8-1c4.5,0,6.8,0.8,7,2.5
				c-0.2,0.7-0.8,1.1-1.8,1.3c-0.5,0-1.4-0.2-2.8-0.5c-0.5-0.2-0.9-0.3-1.3-0.3c-1.7-0.3-4.7-0.3-9,0c0,2.3-0.1,4.5-0.2,6.5
				c0.8-0.2,1.5-0.3,2-0.3c1,0.2,1.6,0,1.8-0.5h0.5c0.3,0,0.7,0,1,0c0.5,0.2,0.8,0.2,1,0.2c0.7,0.3,1,0.8,1,1.5c-0.2,0.7-0.5,1-1,1
				c-0.7,0.2-1.5,0.1-2.5-0.2c-1-0.2-1.8-0.3-2.3-0.3c-0.2,0-0.4,0-0.8,0c-0.3,0.2-0.6,0.3-0.8,0.3c0,1.2,0.1,2.8,0.2,4.8
				c0,2,0,3.5,0,4.5c0,3.7-0.1,6-0.2,7c-0.3,1.3-0.8,2.3-1.3,2.8l-0.5,0.2c-0.3,0.2-0.6,0.3-0.8,0.5c-0.7,0-1.3,0-2,0
				c-1.3,0-2.8-0.3-4.5-1l-1.5-0.8c-0.2-0.2-0.4-0.3-0.8-0.5c-0.2-0.2-0.6-0.4-1.3-0.8c-1.7-1.2-2.5-2-2.5-2.5
				c0.3,0,0.8,0.3,1.3,0.8c0.3,0.2,0.6,0.3,0.8,0.5c0.5,0,1.3,0.1,2.3,0.3c1.2,0.2,1.9,0.2,2.3,0.2c0.5,0,0.9,0,1.3,0
				c0-0.2,0.1-0.2,0.2,0c0.5-0.2,1.4-0.3,2.8-0.5c1.2-0.7,1.8-2.3,2-4.8c0-1.2,0-2.8,0-5c0.2-2.3,0.2-4.2,0.2-5.5
				c-2.2,0.3-4.9,0.8-8.3,1.5C460.1,50.4,459.5,50.5,459.1,50.5z M463.4,26c-0.2,0-0.5,0.2-1,0.5c-1,0-1.9-0.8-2.8-2.5
				c-0.7-1.2-1.3-2-1.8-2.5c-1.3,0.7-2.6,1.4-3.8,2.3c-0.7,0.7-1.3,1.1-1.8,1.3c-0.7,0-1.4-0.3-2.3-1c-0.2-0.2-0.6-1.2-1.3-3
				c0-0.8,0.5-1.4,1.5-1.8c1.3-0.7,2.3-1.4,2.8-2.3c0.2-0.3,0.3-0.9,0.5-1.8c0.7-2.2,1.4-3.3,2.3-3.3c1.3,0.5,2.5,2,3.5,4.5
				c0.5,0,1-0.2,1.5-0.5c0.2,0,0.7-0.2,1.5-0.5c1.2-0.5,2-0.8,2.5-0.8c0.3,0,0.8,0,1.3,0c0.5,0.2,0.8,0.3,1,0.3
				c0.3,0,0.5-0.1,0.5-0.3v1v0.5c0,0.8-0.6,1.5-1.8,2c-0.5,0.2-0.8,0.3-1,0.5c-0.2,0-0.3,0.2-0.5,0.5c-0.3,0.3-0.6,0.6-0.8,0.8
				l-0.2,0.8c-0.2,0.5-0.3,0.8-0.3,1V22c0,0.3,0.2,1,0.5,2c0.3,0.5,0.5,0.9,0.5,1.3C464,25.5,463.7,25.7,463.4,26z M461.6,19.8V20
				c0.2,0.8,0.4,1.3,0.8,1.3c0.7-0.7,1.3-1.6,2-2.8C463.2,18.9,462.3,19.3,461.6,19.8z M466.6,23.5v0.3
				C467,23.6,467,23.5,466.6,23.5z M467.9,30v0.5l0.8-0.2L467.9,30z"/>
			<path class="st1" d="M507.6,47.3c-0.3,1.5-1.2,2.4-2.5,2.8c-1.7-0.8-2.9-3.3-3.8-7.3c-1.3,1.3-2.8,2.8-4.3,4.3
				c-1.2,1-2.3,1.4-3.5,1.3c-0.2-0.3-0.9-0.8-2.3-1.5l-1-0.8c0-0.7,0.7-1.4,2-2.3l0.2-0.2c5.2-2.5,10.4-10.3,15.8-23.5
				c-1.2,0-3-0.3-5.5-0.8c1.7,0.3,1.4,0.2-0.8-0.3c-0.3-0.3-0.6-0.6-0.8-0.8l-0.2-0.2c-0.5-0.3-0.8-0.6-0.8-0.8
				c0-1.2,1.9-1.9,5.8-2.3c0.8,0,1.3,0,1.5,0c1-0.8,2.1-1.3,3.3-1.3c2.3,0.2,3.6,1.2,3.8,3c0,0.8-0.5,2.1-1.5,3.8
				c-1,1.5-1.8,2.9-2.3,4.3c-1.5,3.7-3.2,7.2-5,10.5c0.5,0,1.3-0.3,2.5-1c1.5-0.7,2.6-1,3.3-1c3.3,0.2,5,1.5,5,4
				c-0.2,0.5-0.3,0.9-0.5,1.3c-0.2,2.5-1.1,4.8-2.8,7c-0.5,0.8-1.6,1.3-3.3,1.3C509.5,47.1,508.6,47.3,507.6,47.3z M505.9,39.5
				c0.2,0.3,0.4,1.1,0.8,2.3c0.3,1,0.5,1.8,0.5,2.3c0.2,0,0.4-0.1,0.8-0.3c1-0.2,1.7-0.4,2-0.8c0.5-1.5,0.8-3.3,0.8-5.5
				C508.8,38,507.2,38.7,505.9,39.5z M531.7,64.8c0-1,0-2,0-3c0.7-8.7,1-19.1,1-31.3c-1,0-2.6,0.2-4.8,0.5c-0.8,0.2-1.4,0.3-1.8,0.3
				c-0.7,10.8-2,18.7-4,23.5V55c-0.8,1.3-1.8,2-3,2c-0.5,0-0.8-0.1-0.8-0.2c-0.5,0-0.8-0.4-0.8-1.3V55c0-0.2-0.1-0.2-0.2-0.2v-0.5
				c-0.2-0.5-0.2-0.8-0.2-1c0-0.3,0.3-0.8,1-1.5l0.3-0.2c2.2-4.3,3.6-10.8,4.3-19.5c-0.5,0.2-1.3,0.3-2.3,0.5
				c-1.3,0.5-2.4,0.8-3.3,0.8c-1,0-1.7-0.3-2-0.8c-0.2-0.2-0.4-0.3-0.8-0.3c-0.3-0.2-0.5-0.4-0.5-0.8c0-1,0.4-1.5,1.3-1.5
				c0.7,0,1.3,0,1.8,0c0.5,0,1.1-0.1,1.8-0.3c0.7,0,1.2,0,1.5,0c1-0.3,1.9-0.6,2.8-0.8c0.3-4.7,0.2-8.3-0.2-10.8
				c-1.2-0.3-2.4-0.9-3.8-1.8c-1-0.3-1.8-0.7-2.3-1h0.2l0.3-0.3h0.2c0.2,0,0.5,0,1,0c0.8,0.2,1.5,0.2,2,0c0.3,0,0.9,0,1.8,0
				c3.3-0.2,5.9-0.6,7.8-1.3c0.2,0,0.4-0.1,0.8-0.2c3.3-0.8,5.8-1,7.5-0.5c0,0.2,0.1,0.4,0.2,0.8v0.5c0.2,0.5-0.8,1.3-3,2.3
				c0,3.3,0,6.8,0,10.3c1.3-0.2,1.8-0.3,1.3-0.3c2.2-0.2,3.4-0.2,3.8-0.2c2.5,0,3.8,0.7,3.8,2c-0.2,1.3-0.8,1.8-2,1.5
				c-2.3,0-4.6,0-6.8,0c0,10.8,0,21.4,0,31.8c0.2,2-0.2,3.8-1.3,5.3l-0.2-0.2c-0.2,0.2-0.4,0.3-0.8,0.5c-0.3,0-0.6,0.1-0.8,0.2
				C532.1,67.2,531.8,66.3,531.7,64.8z M525.2,18.3c0.8,1.7,1.3,4.7,1.3,9c0,0.5,0,0.9,0,1.3c1.2-0.2,1.6-0.2,1.3-0.2
				c2.3-0.3,4-0.6,5-0.8c0-3.5,0-6.9,0-10.3c-0.5,0-1.3,0.1-2.5,0.3C528,17.9,526.3,18.1,525.2,18.3z"/>
			<path class="st1" d="M557.7,63.8c-1,0.2-1.4-0.2-1.3-1h-0.8c0.2-0.3,0.8-0.8,1.8-1.5c0.8-0.3,1.3-0.6,1.5-0.8
				c4.5-4.8,7.1-11,7.8-18.5c-3,1-6.2,2.3-9.5,4c-0.2,0-0.4,0.1-0.8,0.2c-1.2,0.5-2,0.8-2.5,0.8c-1.5-0.3-2.3-0.8-2.5-1.3
				c0-0.2,0.3-0.4,1-0.8c0.7-0.3,1-0.6,1-0.8c2.7-1.2,6.9-2.8,12.8-4.8c0.3-0.2,0.6-0.3,0.8-0.3c0.2-0.7,0.3-1.9,0.3-3.8
				c0.2,0,0.2-0.1,0.2-0.2h0.2c0.5,0,1.1,1.2,1.8,3.5c0.5-0.2,1.3-0.4,2.5-0.8c1.7-0.3,2.8-0.6,3.3-0.8c0.2-0.2,0.8-0.4,1.8-0.8
				c0-0.2,0.2-0.2,0.5-0.2c0.8,0.2,1.3,0.7,1.5,1.5c0,0.7-0.3,1.6-1,2.8c-0.3,0.5-0.6,0.9-0.8,1.3c-1.3,4-2.1,7.8-2.3,11.3
				c0,2.5,1,4.3,3,5.3c1.3,0.5,3.3,0.9,6,1.3h0.2c4.5,0,7.8-0.5,10-1.5c0.3-0.2,0.5-0.3,0.5-0.5c0.3-0.5,0.7-1.3,1-2.3
				c0.5-1,0.8-1.7,1-2l0.2-1.5l0.2-0.5c0.2-0.7,0.4-1,0.8-1v2.3l0.2,0.3c0.2,1.2,0.3,2,0.5,2.5V56c0,0.2-0.1,0.3-0.3,0.5l-0.2,0.2
				c0,0.3,0.1,0.6,0.2,0.8l0.3-0.2c0.2-0.3,0.3-0.6,0.5-0.8c-0.7,1.8-1.2,3-1.5,3.5c-3.5,1.2-6.4,1.8-8.8,1.8
				c-11.2,0.5-16.7-2.6-16.5-9.3c0.2-3.3,1.1-7.8,2.8-13.3c-1.8,0.3-3.8,0.9-5.8,1.8c-0.5,3.7-1.3,7.2-2.3,10.5
				c-2,6-4.5,9.9-7.5,11.8l-0.3,0.3c-0.7,0.3-1.3,0.5-1.8,0.5V63.8z M552.2,29c0-1.5,0.8-3,2.3-4.5c0-0.2,0.5-0.8,1.5-1.8
				c1.8-1.7,2.9-2.6,3.3-2.8c0.7,0.7,1.1,1.8,1.3,3.5c4.2-1,7.7-1.6,10.5-1.8c-0.3-0.2-0.6-0.4-0.8-0.8c-0.5,0-1.2-0.3-2-1
				c-0.2-0.2-0.3-0.3-0.5-0.3c-1-0.3-1.9-0.5-2.8-0.5c-0.7,0-1.5,0.1-2.5,0.2c-1,0-1.8,0-2.3,0c0.2-0.3,1.6-0.6,4.3-0.8
				c2,0,3.5-0.1,4.5-0.3c0.2,0,0.2-0.1,0.2-0.2c-0.2-0.8-1.1-2.3-2.8-4.3c-1-1-1.5-1.6-1.5-1.8c-0.2,0-0.2-0.2-0.2-0.5
				c0-0.3,0.2-0.5,0.5-0.5v0.2c0.2,0,0.7,0.1,1.5,0.3h0.8c0.2,0,0.8,0.3,2,1c2.8,2.7,4.3,4.8,4.5,6.5c-0.2,0.3-0.2,0.7-0.2,1
				c0.2,0.8,0.5,1.2,1,1c0.5,0,1.3-0.1,2.5-0.3c1,0,1.8,0,2.3,0c4.5-0.2,8.3,0.5,11.5,2c1.2,0.8,1.7,1.5,1.5,2
				c0,0.7-0.2,1.1-0.5,1.3c-1.2,0.7-2.1,1.3-2.8,1.8c-1.5,0.5-3.3,0.8-5.3,1c-0.3-0.2-0.6-0.2-0.8-0.2c-0.5,0-0.8,0.1-1,0.2h-0.5
				c0.3-0.7,1.3-1.6,2.8-2.8l0.3-0.3c0.2-0.2,0.7-0.5,1.5-1c0.3-0.2,0.6-0.3,0.8-0.5c0.5-0.5,0.4-0.8-0.2-1c-1.5-0.7-4.2-1-8-1
				c-3.7,0-8.3,0.6-13.8,1.8c-1.7,0.2-3.3,0.4-4.8,0.8c-0.2,0.3-0.5,0.8-1,1.5c-0.5,0.7-0.8,1.2-1,1.5h1l-0.2,0.3
				c-0.2,0-0.4,0.2-0.8,0.5l-0.5,0.5c-0.3,0.2-0.6,0.3-0.8,0.5c-0.2,0.2-0.3,0.3-0.5,0.5c-0.2,0.5-0.6,0.8-1.3,0.8
				c-0.2,0-0.3,0-0.5,0h-0.5c-0.2,0.2-0.3,0.3-0.5,0.3C553.2,31.3,552.7,30.5,552.2,29z M558.9,37c0-0.8,0.7-1.8,2-2.8
				c3-2.8,4.8-5.1,5.3-6.8c0-0.2,0-0.3,0-0.5l-0.2-0.5v-0.2c0-0.5,0.2-0.8,0.5-0.8c0.2,0,0.9,0.8,2.3,2.3c0.5,0.7,0.8,1.1,1,1.3
				c0.3,1.2,0.3,2.2,0,3c-1.3,1.5-3,2.8-5,4c-0.2,0-0.3,0.1-0.5,0.3l-0.2-0.3c-0.2,0-0.3,0-0.5,0c-0.2,0-0.6,0.3-1.3,0.8
				c-0.7,0.5-1.2,0.8-1.5,0.8c0-0.2-0.2-0.2-0.5-0.2C560,37.1,559.6,37,558.9,37z M579.9,33.3h-1l-0.2-0.3c-0.2-0.3-0.7-0.5-1.5-0.5
				c0.2,0,0.2-0.2,0.2-0.5h0.2v-0.3c0-0.7-0.5-1.5-1.5-2.5c-0.5-0.5-1-1-1.5-1.5c-0.3-0.3-0.5-0.7-0.5-1c0-0.3,0.2-0.5,0.8-0.5
				c1.5,0,3.3,1.1,5.5,3.3c1,1.3,1.5,2.6,1.5,3.8v0.2l-0.2-0.2c0-0.2-0.1-0.3-0.2-0.3h-0.2c-0.2,0-0.3,0.1-0.5,0.3
				c0,0.2,0,0.3,0,0.5V34v-0.2c0-0.2-0.1-0.3-0.2-0.3C580.3,33.4,580.1,33.3,579.9,33.3z"/>
			<path class="st1" d="M607.7,67.8c-1-0.2-1.6-2.6-1.8-7.3c0.3-7,0.8-14.6,1.3-22.8c0-4.3,0.4-8.8,1.3-13.3c0-0.3,0.1-0.9,0.2-1.8
				c0.2-0.7,0.2-1.1,0.2-1.3c-0.2,0-0.4,0-0.8,0c-0.3,0.2-0.7,0.2-1,0.2c-3.5-0.2-5.3-0.8-5.5-2c0-0.5,0.3-0.8,1-0.8
				c3.2-0.8,5.9-1.8,8.3-2.8c0.3-0.2,0.8-0.4,1.5-0.8c2-1.2,3.5-1.8,4.5-2c2.2-0.3,3.4,0.3,3.8,2c0,2-1.3,5.5-3.8,10.5
				c0,0.2-0.1,0.4-0.2,0.8c-0.2,0.3-0.2,0.7-0.2,1c0,0.3,0.3,1.2,1,2.5c1.2,1.8,1.9,3.4,2.3,4.8c0.2,0.7,0.2,1.9,0.2,3.8
				c-0.2,2.7-1.1,4.1-2.8,4.3c-1.7,0-3.3-0.8-5-2.5c-0.3-0.3-0.6-0.6-0.8-0.8l-0.2-0.2c-0.2-0.3-0.3-0.5-0.5-0.5
				c0,7.7,0,15.1,0,22.3c0.3,2.7,0.1,4.5-0.8,5.5C609.5,67.6,608.7,68,607.7,67.8z M610.7,34v0.5c0,0.2,0,0.4,0,0.8
				c0,1,0.6,1.7,1.8,2c1.3,0.7,2.2,1,2.5,1c0.7,0,1-0.8,1-2.3c0.2-1.7-0.3-3.7-1.3-6c-0.2-0.3-0.3-0.8-0.5-1.5
				c-0.3-0.7-0.6-1.3-0.8-2c1-4.2,1.8-6.8,2.3-8h-0.2c-0.5,0.3-1.3,0.8-2.5,1.5c-0.8,0.3-1.4,0.6-1.8,0.8c0.2,0.5,0.2,1.1,0.2,1.8
				c0,0.3,0,0.9,0,1.8c-0.2,0.8-0.2,1.5-0.2,2C610.9,28.8,610.7,31.4,610.7,34z M619.5,31.8c-0.7-0.2-1.3-0.8-1.8-2
				c-0.2-0.3-0.2-0.6-0.2-0.8c0-0.3,0.4-0.9,1.3-1.8c1.7-1.7,3-3.3,4-4.8c1.2-1.8,2-2.8,2.5-3c0.5,0,0.8,0.8,1,2.3
				c0,0.2,0,0.4,0,0.8c-0.2,0.5-0.2,0.8-0.2,1c2.2-0.5,4.2-1.1,6-1.8l-0.2-0.2c-0.3,0-0.4-0.1-0.2-0.2c0-0.2,0.2-0.3,0.5-0.3
				c0.2-0.2,0.3-0.3,0.3-0.5c0-1.5-1.1-3.7-3.3-6.5c-0.3-0.5-0.5-1-0.5-1.5c0.7-0.5,2.1-0.1,4.3,1.3c1.7,1.3,2.9,3.8,3.8,7.3
				c0.5,0,1.3-0.1,2.3-0.2c2.8-0.3,4.9-0.5,6.3-0.5c2,0,3.9,0.3,5.8,1c1.2,1,1.8,1.8,2,2.5c0,0.7-0.1,1.1-0.2,1.3
				c-0.8,0.8-3.5,2.1-8,3.8v-0.5c0-0.2-0.1-0.3-0.2-0.3H644l-0.2,0.3c0,0.2-0.1,0.2-0.3,0.2l-0.2-0.2c0-0.2-0.1-0.3-0.2-0.3
				c-0.3,0-1.1,0.3-2.3,0.8c-0.7,0.3-1.1,0.5-1.3,0.5h-0.2c0.2-0.3,1.8-1.8,5-4.3c1.8-1.3,2.9-2.2,3.3-2.5c-0.7-0.3-1.6-0.4-2.8-0.3
				c-0.5,0-0.8,0-1,0c-2.5,0-5,0.3-7.5,0.8c-0.7,0.3-1.5,0.4-2.5,0.3c-5.5,1.2-8.7,2.4-9.5,3.8c-0.2,0-0.2,0.1-0.2,0.2l-0.2,0.3
				C622.2,30.2,620.8,31.6,619.5,31.8z M618.2,60.3l0.3-0.3v-0.5c0-0.2-0.1-0.3-0.3-0.5c-0.2-0.2-0.2-0.3-0.2-0.5V58
				c0.3-0.3,0.9-0.9,1.8-1.8c1.3-1.2,2.3-2.1,3-2.8c3.2-4,5.7-8.1,7.5-12.3c-3,1.7-5.8,2.5-8.5,2.5c-0.7,0-1.1-0.2-1.3-0.8
				c0-0.3,0-0.6,0-0.8c-0.2-0.2-0.3-0.3-0.5-0.5c0-0.7,0.5-1.3,1.5-1.8c0.5-0.2,0.8-0.3,1-0.5c1.2-1,2.3-1.9,3.3-2.8
				c0.2-0.2,0.5-0.4,1-0.8c1-0.7,1.9-1.6,2.8-2.8c0.2-0.2,0.3-0.3,0.5-0.5l0.5-0.2l-0.2-0.3H630c-0.2,0-0.3,0-0.5,0
				c-1.7-0.2-2.5-0.9-2.5-2.3c0-0.7,0.4-1,1.3-1c0.3,0,0.7,0,1,0c0.5,0.2,0.8,0.2,1,0.2c0.8,0,1.9-0.2,3.3-0.5
				c1.3-0.3,2.3-0.5,3-0.5c1.3-0.2,1.9,0.5,1.8,2c-0.5,0.7-1.7,1.3-3.5,2c0-0.2-0.1-0.2-0.3-0.2c-0.2,0-0.6,0.1-1.3,0.2
				c-0.7,0.3-1.1,0.5-1.3,0.5c-0.2,0.2-0.7,0.4-1.5,0.8c-0.2,0-0.4,0.1-0.8,0.3l-0.3,0.2c-1,1-1.9,1.9-2.8,2.8
				c-0.2,0.2-0.5,0.4-1,0.8c-1,0.8-1.5,1.3-1.5,1.5h0.2c0,0.2-0.1,0.2-0.2,0.2c-0.2,0.2-0.2,0.4-0.2,0.8c1.3,0.2,5.4-1.3,12.3-4.5
				c1.3-0.8,2.6-0.8,3.8,0c0.8,0.5,1.3,1,1.5,1.5c0,1.3-1.4,2-4.3,2H637c-1.2,0.2-2,0.4-2.5,0.8c-0.7,0.7-1.4,1.8-2.3,3.5
				c-0.3,0.5-0.6,0.9-0.8,1.3c-1.2,3-2.8,6-4.8,9c-0.2,0.2-0.4,0.5-0.8,1c-2,3.2-3.8,5.2-5.5,6c-0.2,0-0.4,0-0.8,0
				C618.9,60.5,618.4,60.5,618.2,60.3z M631.5,55.5c0-0.2,0.1-0.4,0.2-0.8v-0.5c0.8-3.5,1.6-6.9,2.3-10.3c0-0.5,0-0.9,0-1.3
				c1.5-0.2,2.2,0.8,2,2.8c-0.2,0.5-0.3,1.3-0.5,2.3c-0.8,3.3-1.3,5.9-1.5,7.8c-0.3,2.7,1.6,4.3,5.8,4.8c4.8,0.2,8.4-0.4,10.8-1.8
				c1-0.5,1.7-1.9,2-4.3c0-0.3,0-0.6,0-0.8V53c-0.2-2.5-0.2-3.9,0-4.3c0.2-0.3,0.3-0.3,0.5,0c0,0.3,0.4,1.2,1.3,2.5
				c0.2,0.2,0.2,0.3,0.2,0.5c0.2,0.5,0.3,1.1,0.5,1.8c0.5,2,0.8,3.6,0.8,4.8c0,1.2-0.2,1.8-0.5,2c-0.3,0.2-0.7,0.2-1,0.2
				c-0.3,0.2-0.7,0.3-1,0.5c-3.7,0.8-7.5,1.3-11.5,1.3c-4.7-0.3-7.8-1.3-9.3-2.8C631.8,58.7,631.5,57.4,631.5,55.5z"/>
		</g>
	</g>
</g>
</svg>
